; OM File Header - Saved 2015/06/22 10:44:43
; (6.1 :patc (om-make-point 10 10) (om-make-point 167 56) (om-make-point 960 637) "" 183 0 "2015/06/21 21:56:30" "2015/06/22 10:44:43")
; End File Header
(in-package :om)(load-lib-for (quote nil))(setf *om-current-persistent* (om-load-patch1 "0. generative and descriptive patches" (quote ((let ((box (om-load-boxcomment "comment" (om-make-point 829 96) (quote "OM-Darwin (Genetic Algorithms in OpenMusic)") "" (om-make-point 84 6) nil (om-make-color 0 0 0) (om-make-font "Futura" 48.0 :family "Futura" :style (quote (:plain)) :mode (quote nil))))) (when (fboundp (quote set-active)) (set-active box nil)) box) (let ((box (om-load-boxcall (quote abstraction) "measure dissonance" (om-load-patch-abs1 "measure dissonance" (quote ((let ((box (om-load-boxwithed1 (quote box-with-win) "sum dissonances" (quote omloop) (quote ((om-load-inputfun (quote input-funbox) "" "chord" nil))) (om-make-point 147 452) nil nil nil (list (let ((box (om-load-boxin "chord" 0 (om-make-point 157 49) "" "chord" nil nil))) (when (fboundp (quote set-active)) (set-active box nil)) box) (let ((box (om-load-boxcall (quote genfun) "inlist" (quote listloop) (quote ((om-load-inputfun (quote input-funbox) "list to iterate" "LIST" nil))) (om-make-point 185 134) nil nil nil nil 1))) (when (fboundp (quote set-active)) (set-active box nil)) box) (let ((box (om-load-boxcall (quote genfun) "sum" (quote sum) (quote ((om-load-inputfun (quote input-funbox) "numbers to sum" "NUMBER" nil))) (om-make-point 213 314) nil nil nil nil 3))) (when (fboundp (quote set-active)) (set-active box nil)) box) (let ((box (om-load-boxcall (quote lispfun) "ACOUSTIC-DISSONANCE" (quote acoustic-dissonance) (quote ((om-load-inputfun (quote input-funbox) "PITCHES" "PITCHES" nil))) (om-make-point 151 229) nil nil nil nil 1))) (when (fboundp (quote set-active)) (set-active box nil)) box) (let ((box (om-load-seqbox "finally" (quote finaldo) (quote ((om-load-inputfun (quote input-funbox) "value to return" "VAL" nil))) (om-make-point 278 420) nil nil nil 0))) (when (fboundp (quote set-active)) (set-active box nil)) box) (let ((box (om-load-seqbox "eachTime" (quote loopdo) (quote ((om-load-inputfun (quote input-funbox) "operations to do" "OP" nil))) (om-make-point 144 409) nil nil nil 0))) (when (fboundp (quote set-active)) (set-active box nil)) box)) (quote ((0 0 1 0 nil 0) (3 0 2 0 nil 0) (1 0 3 0 nil 0) (2 1 4 0 nil 0) (2 0 5 0 nil 0))) 1 "sum dissonances" nil))) (when (fboundp (quote set-active)) (set-active box nil)) box) (let ((box (om-load-boxcall (quote bastype) "aux" (quote t) (quote nil) (om-make-point 266 240) (om-make-point 41 30) 100 "100" nil))) (when (fboundp (quote set-active)) (set-active box nil)) box) (let ((box (om-load-boxcall (quote lispfun) "LMIDIC" (quote lmidic) (quote ((om-load-inputfun (quote input-funbox) "SELF" "SELF" nil))) (om-make-point 96 152) nil nil "l" nil 1))) (when (fboundp (quote set-active)) (set-active box nil)) box) (let ((box (om-load-boxcall (quote lispfun) "MAPCAR" (quote mapcar) (quote ((om-load-inputfun (quote input-funbox) "FUNCTION" "FUNCTION" nil) (om-load-inputfun (quote input-funbox) "LIST" "LIST" nil))) (om-make-point 144 258) nil nil nil nil 1))) (when (fboundp (quote set-active)) (set-active box nil)) box) (let ((box (om-load-boxcall (quote genfun) "OM/" (quote om/) (quote ((om-load-inputfun (quote input-funbox) "number or list" "SELF" 0) (om-load-inputfun (quote input-funbox) "number or list" "NUM" 100))) (om-make-point 159 333) (om-make-point 118 36) nil nil nil 1))) (when (fboundp (quote set-active)) (set-active box nil)) box) (let ((box (om-load-boxcall (quote genfun) "GET-CHORDS" (quote get-chords) (quote ((om-load-inputfun (quote input-funbox) "a music sequence (voice, chord-seq, poly, multi-seq)" "SELF" nil))) (om-make-point 199 138) nil nil nil nil 1))) (when (fboundp (quote set-active)) (set-active box nil)) box) (let ((box (om-load-boxin "input" 0 (om-make-point 146 37) "" nil nil nil))) (when (fboundp (quote set-active)) (set-active box nil)) box) (let ((box (om-load-boxout "output" 0 (om-make-point 179 574) (quote ((om-load-inputfun (quote input-funbox) "" "out" nil))) nil nil))) (when (fboundp (quote set-active)) (set-active box nil)) box))) (quote ((4 0 0 0 nil 0) (2 0 3 0 nil 0) (5 0 3 1 nil 0) (3 0 4 0 nil 0) (1 0 4 1 nil 0) (6 0 5 0 nil 0) (0 0 7 0 nil 0))) 6.1 nil "" (om-make-point 793 33) (om-make-point 401 783)) (quote ((om-load-inputfun (quote input-funbox) "" "input" nil))) (om-make-point 448 416) nil (list 4.9817) nil nil))) (when (fboundp (quote set-active)) (set-active box nil)) box) (let ((box (om-load-boxcall (quote bastype) "aux 2" (quote t) (quote nil) (om-make-point 219 351) (om-make-point 27 30) 4 "4" nil))) (when (fboundp (quote set-active)) (set-active box nil)) box) (let ((box (om-load-boxcall (quote bastype) "aux" (quote t) (quote nil) (om-make-point 102 350) (om-make-point 34 30) 16 "16" nil))) (when (fboundp (quote set-active)) (set-active box nil)) box) (let ((box (om-load-boxcall (quote abstraction) "generate chord sequence" (om-load-patch-abs1 "generate chord sequence" (quote ((let ((box (om-load-boxcall (quote bastype) "aux 8" (quote t) (quote nil) (om-make-point 155 57) (om-make-point 27 30) 3 "3" nil))) (when (fboundp (quote set-active)) (set-active box nil)) box) (let ((box (om-load-boxcall (quote bastype) "aux 7" (quote t) (quote nil) (om-make-point 89 63) (om-make-point 27 30) 1 "1" nil))) (when (fboundp (quote set-active)) (set-active box nil)) box) (let ((box (om-load-boxout "output" 0 (om-make-point 357 1126) (quote ((om-load-inputfun (quote input-funbox) "" "out" nil))) nil nil))) (when (fboundp (quote set-active)) (set-active box nil)) box) (let ((box (om-load-boxcall (quote bastype) "aux 6" (quote t) (quote nil) (om-make-point 527 871) (om-make-point 41 30) 400 "400" nil))) (when (fboundp (quote set-active)) (set-active box nil)) box) (let ((box (om-load-boxcall (quote bastype) "aux 5" (quote t) (quote nil) (om-make-point 439 868) (om-make-point 62 43) (list 0 400) "(0 400)$" nil))) (when (fboundp (quote set-active)) (set-active box nil)) box) (let ((box (om-load-editor-box1 "CHORD-SEQ" (quote chord-seq) (quote ((om-load-inputfun (quote input-funbox) "object" "self" nil) (om-load-inputfun (quote input-funbox) "pitches (mc): list or list of lists" "lmidic" (list 6000)) (om-load-inputfun (quote input-funbox) "onsets (ms): list" "lonset" (list 0 1000)) (om-load-inputfun (quote input-funbox) "durations (ms): list or list of lists" "ldur" (list 1000)) (om-load-inputfun (quote input-funbox) "velocities (0-127): list or list of lists" "lvel" (list 100)) (om-load-inputfun (quote input-funbox) "offsets (ms): list or list of lists" "loffset" (list 0)) (om-load-inputfun (quote input-funbox) "MIDI channels (1-16): list or list of lists" "lchan" (list 1)) (om-load-inputfun (quote input-funbox) "relative chords duration (0-100)" "legato" 0))) (om-make-point 307 1000) (om-make-point 379 103) (let ((newobj (when (find-class (quote chord-seq) nil) (make-instance (quote chord-seq) :lmidic (quote ((5800 6200 6800 7400) (6100 6500 6900 7700) (6400 6700 7100 5600) (6500 7000 7200 5700) (6600 7200 7300 6000) (6900 7300 7600 6300) (7100 7600 7900 6600) (7400 7700 5700 6700) (7600 7800 6000 7000) (7800 7900 6200 7200) (5700 5700 6400 7300) (5900 5800 6700 7600) (6000 6100 6900 7700) (6100 6400 7200 7900) (6400 6700 7400 5800) (6500 6900 7700 5900))) :lonset (quote (0 400 800 1200 1600 2000 2400 2800 3200 3600 4000 4400 4800 5200 5600 6000 6400)) :ldur (quote ((400 400 400 400) (400 400 400 400) (400 400 400 400) (400 400 400 400) (400 400 400 400) (400 400 400 400) (400 400 400 400) (400 400 400 400) (400 400 400 400) (400 400 400 400) (400 400 400 400) (400 400 400 400) (400 400 400 400) (400 400 400 400) (400 400 400 400) (400 400 400 400))) :lvel (quote ((100 100 100 100) (100 100 100 100) (100 100 100 100) (100 100 100 100) (100 100 100 100) (100 100 100 100) (100 100 100 100) (100 100 100 100) (100 100 100 100) (100 100 100 100) (100 100 100 100) (100 100 100 100) (100 100 100 100) (100 100 100 100) (100 100 100 100) (100 100 100 100))) :loffset (quote ((0 0 0 0) (0 0 0 0) (0 0 0 0) (0 0 0 0) (0 0 0 0) (0 0 0 0) (0 0 0 0) (0 0 0 0) (0 0 0 0) (0 0 0 0) (0 0 0 0) (0 0 0 0) (0 0 0 0) (0 0 0 0) (0 0 0 0) (0 0 0 0))) :lchan (quote ((1 1 1 1) (1 1 1 1) (1 1 1 1) (1 1 1 1) (1 1 1 1) (1 1 1 1) (1 1 1 1) (1 1 1 1) (1 1 1 1) (1 1 1 1) (1 1 1 1) (1 1 1 1) (1 1 1 1) (1 1 1 1) (1 1 1 1) (1 1 1 1))) :legato 0)))) (load-port-info newobj (quote ((0 0 0 0) (0 0 0 0) (0 0 0 0) (0 0 0 0) (0 0 0 0) (0 0 0 0) (0 0 0 0) (0 0 0 0) (0 0 0 0) (0 0 0 0) (0 0 0 0) (0 0 0 0) (0 0 0 0) (0 0 0 0) (0 0 0 0) (0 0 0 0)))) (init-mus-color newobj (quote nil)) (set-extra-pairs newobj (quote nil)) (set-patch-pairs newobj (quote nil)) (set-name newobj nil) (set-tonalite newobj nil) newobj) nil nil (pairlis (quote (scale show-stems cursor-mode obj-mode score-mode winpos winsize mode grillestep notechancolor? zoom player inport outport deltapict cmnpref staff fontsize approx)) (list nil (quote t) (quote :normal) 1 0 (om-make-point 198 481) (om-make-point 1276 325) 0 1000 nil 1 (quote :midi-player) nil nil (om-make-point 0 0) (let ((newobj (make-instance (quote edition-values)))) (setf (paper-size newobj) (om-make-point 600 800)) (setf (top-margin newobj) 2) (setf (left-margin newobj) 1) (setf (right-margin newobj) 1) (setf (bottom-margin newobj) 1) (setf (orientation newobj) nil) (setf (scale newobj) nil) (setf (system-space newobj) (quote (1))) (setf (system-color newobj) (quote nil)) (setf (line-space newobj) 1) (setf (title newobj) nil) (setf (show-title? newobj) nil) (setf (show-page? newobj) nil) (setf (sheet-id newobj) nil) (setf (page-mode newobj) nil) newobj) (quote g) 24 2)) t nil nil nil))) (when (fboundp (quote set-active)) (set-active box nil)) box) (let ((box (om-load-boxcall (quote genfun) "MAT-TRANS" (quote mat-trans) (quote ((om-load-inputfun (quote input-funbox) "a list of lists" "MATRIX" nil))) (om-make-point 343 905) nil nil nil nil 1))) (when (fboundp (quote set-active)) (set-active box nil)) box) (let ((box (om-load-boxcall (quote bastype) "aux 4" (quote t) (quote nil) (om-make-point 430 759) (om-make-point 48 30) 5600 "5600" nil))) (when (fboundp (quote set-active)) (set-active box nil)) box) (let ((box (om-load-boxcall (quote genfun) "OM+ 2" (quote om+) (quote ((om-load-inputfun (quote input-funbox) "number or list" "FUN1" 5600) (om-load-inputfun (quote input-funbox) "number or list" "FUN2" 5600))) (om-make-point 393 837) nil nil nil nil 1))) (when (fboundp (quote set-active)) (set-active box nil)) box) (let ((box (om-load-boxcall (quote bastype) "aux 3" (quote t) (quote nil) (om-make-point 424 659) (om-make-point 41 30) 100 "100" nil))) (when (fboundp (quote set-active)) (set-active box nil)) box) (let ((box (om-load-boxcall (quote genfun) "OM*" (quote om*) (quote ((om-load-inputfun (quote input-funbox) "number or list" "ARG1" 0) (om-load-inputfun (quote input-funbox) "number or list" "ARG2" 100))) (om-make-point 360 757) nil nil nil nil 1))) (when (fboundp (quote set-active)) (set-active box nil)) box) (let ((box (om-load-boxcall (quote lispfun) "MAPCAR" (quote mapcar) (quote ((om-load-inputfun (quote input-funbox) "FUNCTION" "FUNCTION" nil) (om-load-inputfun (quote input-funbox) "LIST" "LIST" nil))) (om-make-point 296 606) nil nil nil nil 1))) (when (fboundp (quote set-active)) (set-active box nil)) box) (let ((box (om-load-boxcall (quote lispfun) "CDR" (quote cdr) (quote ((om-load-inputfun (quote input-funbox) "X" "X" nil))) (om-make-point 215 546) nil nil "l" nil 1))) (when (fboundp (quote set-active)) (set-active box nil)) box) (let ((box (om-load-boxcall (quote bastype) "aux 2" (quote t) (quote nil) (om-make-point 378 360) (om-make-point 84 30) (list 0 5 10 15) "(0 5 10 15)" nil))) (when (fboundp (quote set-active)) (set-active box nil)) box) (let ((box (om-load-boxcall (quote genfun) "OM+" (quote om+) (quote ((om-load-inputfun (quote input-funbox) "number or list" "FUN1" 0) (om-load-inputfun (quote input-funbox) "number or list" "FUN2" 0))) (om-make-point 304 503) nil nil nil nil 1))) (when (fboundp (quote set-active)) (set-active box nil)) box) (let ((box (om-load-boxcall (quote bastype) "aux" (quote t) (quote nil) (om-make-point 407 569) (om-make-point 34 30) 24 "24" nil))) (when (fboundp (quote set-active)) (set-active box nil)) box) (let ((box (om-load-boxcall (quote genfun) "OM//" (quote om//) (quote ((om-load-inputfun (quote input-funbox) "number or list" "SELF" 1) (om-load-inputfun (quote input-funbox) "number or list" "NUM" 1))) (om-make-point 337 666) nil nil nil nil 2))) (when (fboundp (quote set-active)) (set-active box nil)) box) (let ((box (om-load-boxcall (quote genfun) "DX->X" (quote dx->x) (quote ((om-load-inputfun (quote input-funbox) "a number" "START" 0) (om-load-inputfun (quote input-funbox) "a list of numbers" "LIST" (list 1 1)))) (om-make-point 131 313) (om-make-point 99 59) nil nil nil 1))) (when (fboundp (quote set-active)) (set-active box nil)) box) (let ((box (om-load-boxin "num-voices" 1 (om-make-point 486 68) "" "num-voices" 4 nil))) (when (fboundp (quote set-active)) (set-active box nil)) box) (let ((box (om-load-boxcall (quote genfun) "REPEAT-N 2" (quote repeat-n) (quote ((om-load-inputfun (quote input-funbox) "something" "SELF" nil) (om-load-inputfun (quote input-funbox) "times" "N" 0))) (om-make-point 211 422) nil nil nil nil 1))) (when (fboundp (quote set-active)) (set-active box nil)) box) (let ((box (om-load-boxin "length" 0 (om-make-point 235 59) "" "length" 16 nil))) (when (fboundp (quote set-active)) (set-active box nil)) box) (let ((box (om-load-boxcall (quote genfun) "REPEAT-N" (quote repeat-n) (quote ((om-load-inputfun (quote input-funbox) "something" "SELF" nil) (om-load-inputfun (quote input-funbox) "times" "N" 0))) (om-make-point 131 212) (om-make-point 140 59) nil nil nil 1))) (when (fboundp (quote set-active)) (set-active box nil)) box) (let ((box (om-load-boxcall (quote genfun) "OM-RANDOM" (quote om-random) (quote ((om-load-inputfun (quote input-funbox) "min" "LOW" 1) (om-load-inputfun (quote input-funbox) "max" "HIGH" 3))) (om-make-point 100 111) nil nil nil nil 1))) (when (fboundp (quote set-active)) (set-active box nil)) box))) (quote ((5 0 2 0 nil 0) (6 0 5 1 nil 0) (4 0 5 2 nil 0) (3 0 5 3 nil 0) (8 0 6 0 nil 0) (10 0 8 0 nil 0) (7 0 8 1 nil 0) (16 1 10 0 nil 0) (9 0 10 1 nil 0) (12 0 11 0 nil 0) (14 0 11 1 nil 0) (19 0 14 0 nil 0) (13 0 14 1 nil 0) (11 0 16 0 nil 0) (15 0 16 1 nil 0) (21 0 17 1 nil 0) (17 0 19 0 nil 0) (18 0 19 1 nil 0) (22 0 21 0 nil 0) (20 0 21 1 nil 0) (1 0 22 0 nil 0) (0 0 22 1 nil 0))) 6.1 nil "" (om-make-point 122 23) (om-make-point 943 1283)) (quote ((om-load-inputfun (quote input-funbox) "" "length" 16) (om-load-inputfun (quote input-funbox) "" "num-voices" 4))) (om-make-point 125 410) nil (list (let ((newobj (when (find-class (quote chord-seq) nil) (make-instance (quote chord-seq) :lmidic (quote ((5800 6200 6900 7300) (6000 6500 7100 7600) (6100 6600 7400 7900) (6400 6800 7600 5700) (6600 7100 7800 5800) (6700 7400 7900 5900) (6900 7500 5800 6200) (7200 7700 6100 6300) (7500 7800 6300 6500) (7700 7900 6600 6700) (5600 5700 6700 7000) (5900 5900 7000 7200) (6100 6200 7300 7400) (6200 6500 7400 7600) (6400 6600 7500 7800) (6700 6800 7800 5700))) :lonset (quote (0 400 800 1200 1600 2000 2400 2800 3200 3600 4000 4400 4800 5200 5600 6000 6400)) :ldur (quote ((400 400 400 400) (400 400 400 400) (400 400 400 400) (400 400 400 400) (400 400 400 400) (400 400 400 400) (400 400 400 400) (400 400 400 400) (400 400 400 400) (400 400 400 400) (400 400 400 400) (400 400 400 400) (400 400 400 400) (400 400 400 400) (400 400 400 400) (400 400 400 400))) :lvel (quote ((100 100 100 100) (100 100 100 100) (100 100 100 100) (100 100 100 100) (100 100 100 100) (100 100 100 100) (100 100 100 100) (100 100 100 100) (100 100 100 100) (100 100 100 100) (100 100 100 100) (100 100 100 100) (100 100 100 100) (100 100 100 100) (100 100 100 100) (100 100 100 100))) :loffset (quote ((0 0 0 0) (0 0 0 0) (0 0 0 0) (0 0 0 0) (0 0 0 0) (0 0 0 0) (0 0 0 0) (0 0 0 0) (0 0 0 0) (0 0 0 0) (0 0 0 0) (0 0 0 0) (0 0 0 0) (0 0 0 0) (0 0 0 0) (0 0 0 0))) :lchan (quote ((1 1 1 1) (1 1 1 1) (1 1 1 1) (1 1 1 1) (1 1 1 1) (1 1 1 1) (1 1 1 1) (1 1 1 1) (1 1 1 1) (1 1 1 1) (1 1 1 1) (1 1 1 1) (1 1 1 1) (1 1 1 1) (1 1 1 1) (1 1 1 1))) :legato 0)))) (load-port-info newobj (quote ((0 0 0 0) (0 0 0 0) (0 0 0 0) (0 0 0 0) (0 0 0 0) (0 0 0 0) (0 0 0 0) (0 0 0 0) (0 0 0 0) (0 0 0 0) (0 0 0 0) (0 0 0 0) (0 0 0 0) (0 0 0 0) (0 0 0 0) (0 0 0 0)))) (init-mus-color newobj (quote nil)) (set-extra-pairs newobj (quote nil)) (set-patch-pairs newobj (quote nil)) (set-name newobj nil) (set-tonalite newobj nil) newobj)) nil nil))) (when (fboundp (quote set-active)) (set-active box nil)) box) (let ((box (om-load-boxcomment "comment" (om-make-point 723 146) (quote "first: getting started, with GENERATIVE and DESCRIPTIVE patches :") "" (om-make-point 103 192) nil (om-make-color 0 0 0) (om-make-font "Futura" 48.0 :family "Futura" :style (quote (:plain)) :mode (quote nil))))) (when (fboundp (quote set-active)) (set-active box nil)) box))) (quote ((3 0 4 0 nil 0) (2 0 4 1 nil 0))) nil 6.1))
