; OM File Header - Saved 2015/06/22 9:42:20
; (6.1 :patc (om-make-point 172 60) (om-make-point 50 50) (om-make-point 733 637) "" 183 0 "2015/06/22 9:42:20" "2015/06/22 9:42:20")
; End File Header
(in-package :om)(load-lib-for (quote ("om-darwin")))(setf *om-current-persistent* (om-load-patch1 "embed species" (quote ((let ((box (om-load-boxcall (quote bastype) "aux" (quote t) (quote nil) (om-make-point 563 178) (om-make-point 83 30) (list 400 1100) "(400 1100)" nil))) (when (fboundp (quote set-active)) (set-active box nil)) box) (let ((box (om-load-boxcall (quote genfun) "C-MELODIC" (quote c-melodic) (quote ((om-load-inputfun (quote input-funbox) "" "TEST-VALUE" (list 400 1100)))) (om-make-point 469 290) nil nil nil nil 1))) (when (fboundp (quote set-active)) (set-active box nil)) box) (let ((box (om-load-boxcall (quote genfun) "DEFINE-SPECIES" (quote define-species) (quote ((om-load-inputfun (quote input-funbox) "" "FUN" nil))) (om-make-point 264 307) nil nil nil nil 1))) (when (fboundp (quote set-active)) (set-active box nil)) box) (let ((box (om-load-boxcall (quote abstraction) "partials plus rhythm" (om-load-patch-abs1 "partials plus rhythm" (quote ((let ((box (om-load-boxcall (quote genfun) "EMBED-SPECIES" (quote embed-species) (quote ((om-load-inputfun (quote input-funbox) "" "SPEC" nil))) (om-make-point 435 300) nil nil nil nil 1))) (when (fboundp (quote set-active)) (set-active box nil)) box) (let ((box (om-load-boxout "output" 0 (om-make-point 263 629) (quote ((om-load-inputfun (quote input-funbox) "" "out" nil))) nil nil))) (when (fboundp (quote set-active)) (set-active box nil)) box) (let ((box (om-load-boxin "number of notes" 2 (om-make-point 369 42) "" "number of notes" nil nil))) (when (fboundp (quote set-active)) (set-active box nil)) box) (let ((box (om-load-boxin "fundamental frequency" 1 (om-make-point 203 87) "" "fundamental frequency" nil nil))) (when (fboundp (quote set-active)) (set-active box nil)) box) (let ((box (om-load-boxin "max-partial" 0 (om-make-point 119 34) "" "max-partial" nil nil))) (when (fboundp (quote set-active)) (set-active box nil)) box) (let ((box (om-load-boxcall (quote bastype) "aux 6" (quote t) (quote nil) (om-make-point 507 82) (om-make-point 46 30) 1/32 "1/32" nil))) (when (fboundp (quote set-active)) (set-active box nil)) box) (let ((box (om-load-boxcall (quote bastype) "aux 5" (quote t) (quote nil) (om-make-point 569 136) (om-make-point 48 30) (list 1 2) "(1 2)" nil))) (when (fboundp (quote set-active)) (set-active box nil)) box) (let ((box (om-load-boxcall (quote lispfun) "COMBINE-RHYTHMS-AND-PITCHES" (quote om-darwin::combine-rhythms-and-pitches) (quote ((om-load-inputfun (quote input-funbox) "RHYTHM-ARR" "RHYTHM-ARR" nil) (om-load-inputfun (quote input-funbox) "PITCHES" "PITCHES" nil))) (om-make-point 222 548) nil nil nil nil 1))) (when (fboundp (quote set-active)) (set-active box nil)) box) (let ((box (om-load-boxcall (quote lispfun) "PHENOTYPE" (quote om-darwin::phenotype) (quote ((om-load-inputfun (quote input-funbox) "SELF" "SELF" nil))) (om-make-point 404 423) nil nil nil nil 1))) (when (fboundp (quote set-active)) (set-active box nil)) box) (let ((box (om-load-boxcall (quote genfun) "F->MC" (quote f->mc) (quote ((om-load-inputfun (quote input-funbox) "frequency (Hz)" "FREQ" 440))) (om-make-point 207 331) nil nil nil nil 1))) (when (fboundp (quote set-active)) (set-active box nil)) box) (let ((box (om-load-boxcall (quote bastype) "aux" (quote t) (quote nil) (om-make-point 64 65) (om-make-point 27 30) 1 "1" nil))) (when (fboundp (quote set-active)) (set-active box nil)) box) (let ((box (om-load-boxcall (quote genfun) "MAKE-GRID-MELODY" (quote make-grid-melody) (quote ((om-load-inputfun (quote input-funbox) "" "NUM-NOTES" 8) (om-load-inputfun (quote input-funbox) "" "RANGE" (list 6000 7200)) (om-load-inputfun (quote input-funbox) "" "NOTE-VALUE" 1/16) (om-load-inputfun (quote input-funbox) "" "LEN-RANGE" (list 1 4)))) (om-make-point 460 196) nil nil nil nil 1))) (when (fboundp (quote set-active)) (set-active box nil)) box) (let ((box (om-load-boxcall (quote genfun) "OM-GENE" (quote om-gene) (quote ((om-load-inputfun (quote input-funbox) "minimum value" "MIN" 0) (om-load-inputfun (quote input-funbox) "maximum value" "MAX" 1))) (om-make-point 80 131) nil nil nil nil 1))) (when (fboundp (quote set-active)) (set-active box nil)) box) (let ((box (om-load-boxcall (quote genfun) "OM*" (quote om*) (quote ((om-load-inputfun (quote input-funbox) "number or list" "ARG1" 0) (om-load-inputfun (quote input-funbox) "number or list" "ARG2" 100))) (om-make-point 104 254) (om-make-point 107 35) nil nil nil 1))) (when (fboundp (quote set-active)) (set-active box nil)) box) (let ((box (om-load-boxcall (quote genfun) "REPEAT-N" (quote repeat-n) (quote ((om-load-inputfun (quote input-funbox) "something" "SELF" 0) (om-load-inputfun (quote input-funbox) "times" "N" 16))) (om-make-point 258 417) nil nil nil nil 1))) (when (fboundp (quote set-active)) (set-active box nil)) box))) (quote ((11 0 0 0 nil 0) (7 0 1 0 nil 0) (8 0 7 0 nil 0) (14 0 7 1 nil 0) (0 0 8 0 nil 0) (13 0 9 0 nil 0) (2 0 11 0 nil 0) (5 0 11 2 nil 0) (6 0 11 3 nil 0) (10 0 12 0 nil 0) (4 0 12 1 nil 0) (12 0 13 0 nil 0) (3 0 13 1 nil 0) (9 0 14 0 nil 0) (2 0 14 1 nil 0))) 6.1 nil "" (om-make-point 200 200) (om-make-point 500 400)) (quote ((om-load-inputfun (quote input-funbox) "" "input" nil) (om-load-inputfun (quote input-funbox) "" "input 2" nil) (om-load-inputfun (quote input-funbox) "" "input 3" nil))) (om-make-point 144 198) (om-make-point 201 67) (list nil) "l" "partials plus rhythm"))) (when (fboundp (quote set-active)) (set-active box nil)) box) (let ((box (om-load-boxcall (quote bastype) "aux 4" (quote t) (quote nil) (om-make-point 322 72) (om-make-point 34 30) 32 "32" nil))) (when (fboundp (quote set-active)) (set-active box nil)) box) (let ((box (om-load-boxcall (quote bastype) "aux 3" (quote t) (quote nil) (om-make-point 199 88) (om-make-point 34 30) 55 "55" nil))) (when (fboundp (quote set-active)) (set-active box nil)) box) (let ((box (om-load-boxcall (quote bastype) "aux 2" (quote t) (quote nil) (om-make-point 91 107) (om-make-point 34 30) 18 "18" nil))) (when (fboundp (quote set-active)) (set-active box nil)) box) (let ((box (om-load-editor-box1 "GA-ENGINE" (quote om-darwin::ga-engine) (quote ((om-load-inputfun (quote input-funbox) "object" "self" nil) (om-load-inputfun (quote input-funbox) "" "model" nil) (om-load-inputfun (quote input-funbox) "" "fitness-function" nil))) (om-make-point 133 420) (om-make-point 518 129) (let ((om-darwin::ga (mki (quote om-darwin::ga-engine)))) (setf (om-darwin::model om-darwin::ga) nil) (setf (om-darwin::population om-darwin::ga) (list (list 0.0 (let ((om-darwin::spec (if (find-class (quote om-darwin::om-specimen) nil) (make-instance (quote om-darwin::om-specimen) :raw-genotype nil :decoder nil :operons nil :pheno nil :from-file t)))) (setf (om-darwin::raw-genotype om-darwin::spec) nil) (om-darwin::update om-darwin::spec) om-darwin::spec) 15352) (list 32.575348 (let ((om-darwin::spec (if (find-class (quote om-darwin::om-specimen) nil) (make-instance (quote om-darwin::om-specimen) :raw-genotype nil :decoder nil :operons nil :pheno nil :from-file t)))) (setf (om-darwin::raw-genotype om-darwin::spec) nil) (om-darwin::update om-darwin::spec) om-darwin::spec) 1) (list 69.82679 (let ((om-darwin::spec (if (find-class (quote om-darwin::om-specimen) nil) (make-instance (quote om-darwin::om-specimen) :raw-genotype nil :decoder nil :operons nil :pheno nil :from-file t)))) (setf (om-darwin::raw-genotype om-darwin::spec) nil) (om-darwin::update om-darwin::spec) om-darwin::spec) 4) (list 109.07431 (let ((om-darwin::spec (if (find-class (quote om-darwin::om-specimen) nil) (make-instance (quote om-darwin::om-specimen) :raw-genotype nil :decoder nil :operons nil :pheno nil :from-file t)))) (setf (om-darwin::raw-genotype om-darwin::spec) nil) (om-darwin::update om-darwin::spec) om-darwin::spec) 9) (list 130.23249 (let ((om-darwin::spec (if (find-class (quote om-darwin::om-specimen) nil) (make-instance (quote om-darwin::om-specimen) :raw-genotype nil :decoder nil :operons nil :pheno nil :from-file t)))) (setf (om-darwin::raw-genotype om-darwin::spec) nil) (om-darwin::update om-darwin::spec) om-darwin::spec) 5) (list 149.677 (let ((om-darwin::spec (if (find-class (quote om-darwin::om-specimen) nil) (make-instance (quote om-darwin::om-specimen) :raw-genotype nil :decoder nil :operons nil :pheno nil :from-file t)))) (setf (om-darwin::raw-genotype om-darwin::spec) nil) (om-darwin::update om-darwin::spec) om-darwin::spec) 7) (list 171.4094 (let ((om-darwin::spec (if (find-class (quote om-darwin::om-specimen) nil) (make-instance (quote om-darwin::om-specimen) :raw-genotype nil :decoder nil :operons nil :pheno nil :from-file t)))) (setf (om-darwin::raw-genotype om-darwin::spec) nil) (om-darwin::update om-darwin::spec) om-darwin::spec) 9) (list 184.13 (let ((om-darwin::spec (if (find-class (quote om-darwin::om-specimen) nil) (make-instance (quote om-darwin::om-specimen) :raw-genotype nil :decoder nil :operons nil :pheno nil :from-file t)))) (setf (om-darwin::raw-genotype om-darwin::spec) nil) (om-darwin::update om-darwin::spec) om-darwin::spec) 10) (list 191.31812 (let ((om-darwin::spec (if (find-class (quote om-darwin::om-specimen) nil) (make-instance (quote om-darwin::om-specimen) :raw-genotype nil :decoder nil :operons nil :pheno nil :from-file t)))) (setf (om-darwin::raw-genotype om-darwin::spec) nil) (om-darwin::update om-darwin::spec) om-darwin::spec) 8) (list 213.51384 (let ((om-darwin::spec (if (find-class (quote om-darwin::om-specimen) nil) (make-instance (quote om-darwin::om-specimen) :raw-genotype nil :decoder nil :operons nil :pheno nil :from-file t)))) (setf (om-darwin::raw-genotype om-darwin::spec) nil) (om-darwin::update om-darwin::spec) om-darwin::spec) 9))) (setf (om-darwin::generation om-darwin::ga) 15432) (setf (om-darwin::result om-darwin::ga) (if (find-class (quote poly) nil) (let ((newobj (make-instance (quote poly) :voices (list (let ((newobj (when (find-class (quote voice) nil) (make-instance (quote voice) :tree (quote (2 (((4 4) ((1 (2 1 1 2 1 1)) (1 (2 1 2 1 2)) (1 (2 1 2 1 2)) (1 (2 2 1 1 2)))) ((4 4) ((1 (2 2 2 1 1)) (1 (1.0 1 1 2 2 1)) (1 (1 -3)) -1))))) :chords (load-obj-list-from-save (quote ((let ((thechord (make-instance (quote chord) :lmidic (quote (8100)) :ldur (quote (250)) :lvel (quote (100)) :loffset (quote (0)) :lchan (quote (1))))) (load-port-info thechord (quote (0))) (init-mus-color thechord (quote nil)) (set-extra-pairs thechord (quote nil)) (set-tonalite thechord nil) thechord) (let ((thechord (make-instance (quote chord) :lmidic (quote (7104)) :ldur (quote (125)) :lvel (quote (100)) :loffset (quote (0)) :lchan (quote (1))))) (load-port-info thechord (quote (0))) (init-mus-color thechord (quote nil)) (set-extra-pairs thechord (quote nil)) (set-tonalite thechord nil) thechord) (let ((thechord (make-instance (quote chord) :lmidic (quote (6668)) :ldur (quote (125)) :lvel (quote (100)) :loffset (quote (0)) :lchan (quote (1))))) (load-port-info thechord (quote (0))) (init-mus-color thechord (quote nil)) (set-extra-pairs thechord (quote nil)) (set-tonalite thechord nil) thechord) (let ((thechord (make-instance (quote chord) :lmidic (quote (7104)) :ldur (quote (250)) :lvel (quote (100)) :loffset (quote (0)) :lchan (quote (1))))) (load-port-info thechord (quote (0))) (init-mus-color thechord (quote nil)) (set-extra-pairs thechord (quote nil)) (set-tonalite thechord nil) thechord) (let ((thechord (make-instance (quote chord) :lmidic (quote (7868)) :ldur (quote (125)) :lvel (quote (100)) :loffset (quote (0)) :lchan (quote (1))))) (load-port-info thechord (quote (0))) (init-mus-color thechord (quote nil)) (set-extra-pairs thechord (quote nil)) (set-tonalite thechord nil) thechord) (let ((thechord (make-instance (quote chord) :lmidic (quote (6900)) :ldur (quote (125)) :lvel (quote (100)) :loffset (quote (0)) :lchan (quote (1))))) (load-port-info thechord (quote (0))) (init-mus-color thechord (quote nil)) (set-extra-pairs thechord (quote nil)) (set-tonalite thechord nil) thechord) (let ((thechord (make-instance (quote chord) :lmidic (quote (7988)) :ldur (quote (250)) :lvel (quote (100)) :loffset (quote (0)) :lchan (quote (1))))) (load-port-info thechord (quote (0))) (init-mus-color thechord (quote nil)) (set-extra-pairs thechord (quote nil)) (set-tonalite thechord nil) thechord) (let ((thechord (make-instance (quote chord) :lmidic (quote (7452)) :ldur (quote (125)) :lvel (quote (100)) :loffset (quote (0)) :lchan (quote (1))))) (load-port-info thechord (quote (0))) (init-mus-color thechord (quote nil)) (set-extra-pairs thechord (quote nil)) (set-tonalite thechord nil) thechord) (let ((thechord (make-instance (quote chord) :lmidic (quote (7988)) :ldur (quote (250)) :lvel (quote (100)) :loffset (quote (0)) :lchan (quote (1))))) (load-port-info thechord (quote (0))) (init-mus-color thechord (quote nil)) (set-extra-pairs thechord (quote nil)) (set-tonalite thechord nil) thechord) (let ((thechord (make-instance (quote chord) :lmidic (quote (6900)) :ldur (quote (125)) :lvel (quote (100)) :loffset (quote (0)) :lchan (quote (1))))) (load-port-info thechord (quote (0))) (init-mus-color thechord (quote nil)) (set-extra-pairs thechord (quote nil)) (set-tonalite thechord nil) thechord) (let ((thechord (make-instance (quote chord) :lmidic (quote (7988)) :ldur (quote (250)) :lvel (quote (100)) :loffset (quote (0)) :lchan (quote (1))))) (load-port-info thechord (quote (0))) (init-mus-color thechord (quote nil)) (set-extra-pairs thechord (quote nil)) (set-tonalite thechord nil) thechord) (let ((thechord (make-instance (quote chord) :lmidic (quote (7286)) :ldur (quote (250)) :lvel (quote (100)) :loffset (quote (0)) :lchan (quote (1))))) (load-port-info thechord (quote (0))) (init-mus-color thechord (quote nil)) (set-extra-pairs thechord (quote nil)) (set-tonalite thechord nil) thechord) (let ((thechord (make-instance (quote chord) :lmidic (quote (8100)) :ldur (quote (125)) :lvel (quote (100)) :loffset (quote (0)) :lchan (quote (1))))) (load-port-info thechord (quote (0))) (init-mus-color thechord (quote nil)) (set-extra-pairs thechord (quote nil)) (set-tonalite thechord nil) thechord) (let ((thechord (make-instance (quote chord) :lmidic (quote (7104)) :ldur (quote (250)) :lvel (quote (100)) :loffset (quote (0)) :lchan (quote (1))))) (load-port-info thechord (quote (0))) (init-mus-color thechord (quote nil)) (set-extra-pairs thechord (quote nil)) (set-tonalite thechord nil) thechord) (let ((thechord (make-instance (quote chord) :lmidic (quote (7868)) :ldur (quote (125)) :lvel (quote (100)) :loffset (quote (0)) :lchan (quote (1))))) (load-port-info thechord (quote (0))) (init-mus-color thechord (quote nil)) (set-extra-pairs thechord (quote nil)) (set-tonalite thechord nil) thechord) (let ((thechord (make-instance (quote chord) :lmidic (quote (6900)) :ldur (quote (250)) :lvel (quote (100)) :loffset (quote (0)) :lchan (quote (1))))) (load-port-info thechord (quote (0))) (init-mus-color thechord (quote nil)) (set-extra-pairs thechord (quote nil)) (set-tonalite thechord nil) thechord) (let ((thechord (make-instance (quote chord) :lmidic (quote (7868)) :ldur (quote (250)) :lvel (quote (100)) :loffset (quote (0)) :lchan (quote (1))))) (load-port-info thechord (quote (0))) (init-mus-color thechord (quote nil)) (set-extra-pairs thechord (quote nil)) (set-tonalite thechord nil) thechord) (let ((thechord (make-instance (quote chord) :lmidic (quote (7452)) :ldur (quote (250)) :lvel (quote (100)) :loffset (quote (0)) :lchan (quote (1))))) (load-port-info thechord (quote (0))) (init-mus-color thechord (quote nil)) (set-extra-pairs thechord (quote nil)) (set-tonalite thechord nil) thechord) (let ((thechord (make-instance (quote chord) :lmidic (quote (6900)) :ldur (quote (125)) :lvel (quote (100)) :loffset (quote (0)) :lchan (quote (1))))) (load-port-info thechord (quote (0))) (init-mus-color thechord (quote nil)) (set-extra-pairs thechord (quote nil)) (set-tonalite thechord nil) thechord) (let ((thechord (make-instance (quote chord) :lmidic (quote (6402)) :ldur (quote (125)) :lvel (quote (100)) :loffset (quote (0)) :lchan (quote (1))))) (load-port-info thechord (quote (0))) (init-mus-color thechord (quote nil)) (set-extra-pairs thechord (quote nil)) (set-tonalite thechord nil) thechord) (let ((thechord (make-instance (quote chord) :lmidic (quote (6900)) :ldur (quote (250)) :lvel (quote (100)) :loffset (quote (0)) :lchan (quote (1))))) (load-port-info thechord (quote (0))) (init-mus-color thechord (quote nil)) (set-extra-pairs thechord (quote nil)) (set-tonalite thechord nil) thechord) (let ((thechord (make-instance (quote chord) :lmidic (quote (7602)) :ldur (quote (250)) :lvel (quote (100)) :loffset (quote (0)) :lchan (quote (1))))) (load-port-info thechord (quote (0))) (init-mus-color thechord (quote nil)) (set-extra-pairs thechord (quote nil)) (set-tonalite thechord nil) thechord) (let ((thechord (make-instance (quote chord) :lmidic (quote (6668)) :ldur (quote (250)) :lvel (quote (100)) :loffset (quote (0)) :lchan (quote (1))))) (load-port-info thechord (quote (0))) (init-mus-color thechord (quote nil)) (set-extra-pairs thechord (quote nil)) (set-tonalite thechord nil) thechord) (let ((thechord (make-instance (quote chord) :lmidic (quote (5700)) :ldur (quote (250)) :lvel (quote (100)) :loffset (quote (0)) :lchan (quote (1))))) (load-port-info thechord (quote (0))) (init-mus-color thechord (quote nil)) (set-extra-pairs thechord (quote nil)) (set-tonalite thechord nil) thechord) (let ((thechord (make-instance (quote chord) :lmidic (quote (6402)) :ldur (quote (125)) :lvel (quote (100)) :loffset (quote (0)) :lchan (quote (1))))) (load-port-info thechord (quote (0))) (init-mus-color thechord (quote nil)) (set-extra-pairs thechord (quote nil)) (set-tonalite thechord nil) thechord) (let ((thechord (make-instance (quote chord) :lmidic (quote (6900)) :ldur (quote (125)) :lvel (quote (100)) :loffset (quote (0)) :lchan (quote (1))))) (load-port-info thechord (quote (0))) (init-mus-color thechord (quote nil)) (set-extra-pairs thechord (quote nil)) (set-tonalite thechord nil) thechord) (let ((thechord (make-instance (quote chord) :lmidic (quote (7602)) :ldur (quote (125)) :lvel (quote (100)) :loffset (quote (0)) :lchan (quote (1))))) (load-port-info thechord (quote (0))) (init-mus-color thechord (quote nil)) (set-extra-pairs thechord (quote nil)) (set-tonalite thechord nil) thechord) (let ((thechord (make-instance (quote chord) :lmidic (quote (8100)) :ldur (quote (125)) :lvel (quote (100)) :loffset (quote (0)) :lchan (quote (1))))) (load-port-info thechord (quote (0))) (init-mus-color thechord (quote nil)) (set-extra-pairs thechord (quote nil)) (set-tonalite thechord nil) thechord) (let ((thechord (make-instance (quote chord) :lmidic (quote (7452)) :ldur (quote (250)) :lvel (quote (100)) :loffset (quote (0)) :lchan (quote (1))))) (load-port-info thechord (quote (0))) (init-mus-color thechord (quote nil)) (set-extra-pairs thechord (quote nil)) (set-tonalite thechord nil) thechord) (let ((thechord (make-instance (quote chord) :lmidic (quote (6900)) :ldur (quote (250)) :lvel (quote (100)) :loffset (quote (0)) :lchan (quote (1))))) (load-port-info thechord (quote (0))) (init-mus-color thechord (quote nil)) (set-extra-pairs thechord (quote nil)) (set-tonalite thechord nil) thechord) (let ((thechord (make-instance (quote chord) :lmidic (quote (7988)) :ldur (quote (125)) :lvel (quote (100)) :loffset (quote (0)) :lchan (quote (1))))) (load-port-info thechord (quote (0))) (init-mus-color thechord (quote nil)) (set-extra-pairs thechord (quote nil)) (set-tonalite thechord nil) thechord) (let ((thechord (make-instance (quote chord) :lmidic (quote (7452)) :ldur (quote (250)) :lvel (quote (100)) :loffset (quote (0)) :lchan (quote (1))))) (load-port-info thechord (quote (0))) (init-mus-color thechord (quote nil)) (set-extra-pairs thechord (quote nil)) (set-tonalite thechord nil) thechord)))) :tempo (quote ((1/4 60) nil)) :legato 100 :ties (quote (nil nil nil nil nil nil nil nil nil nil nil nil nil nil nil nil nil nil nil nil nil nil nil nil nil nil nil nil nil nil nil nil)))))) (load-port-info newobj (quote nil)) (init-mus-color newobj (quote nil)) (set-extra-pairs newobj (quote nil)) (set-patch-pairs newobj (quote nil)) (set-name newobj nil) (set-tonalite newobj nil) newobj)) :from-file t))) (load-port-info newobj (quote (nil))) (init-mus-color newobj (quote nil)) (set-extra-pairs newobj (quote nil)) (set-patch-pairs newobj (quote nil)) (set-name newobj nil) (set-tonalite newobj nil) newobj))) om-darwin::ga) nil nil (pairlis (quote (scale show-stems cursor-mode obj-mode score-mode winpos winsize mode grillestep notechancolor? zoom player inport outport deltapict cmnpref staff fontsize approx)) (list nil (quote t) (quote :normal) 1 0 (om-make-point 400 23) (om-make-point 370 280) 0 1000 nil 1 (quote :midi-player) nil nil (om-make-point 0 17) (let ((newobj (make-instance (quote edition-values)))) (setf (paper-size newobj) (om-make-point 600 800)) (setf (top-margin newobj) 2) (setf (left-margin newobj) 1) (setf (right-margin newobj) 1) (setf (bottom-margin newobj) 1) (setf (orientation newobj) nil) (setf (scale newobj) nil) (setf (system-space newobj) (quote (1))) (setf (system-color newobj) (quote nil)) (setf (line-space newobj) 1) (setf (title newobj) nil) (setf (show-title? newobj) nil) (setf (show-page? newobj) nil) (setf (sheet-id newobj) nil) (setf (page-mode newobj) nil) newobj) (list (quote g)) 24 4)) t nil nil nil))) (when (fboundp (quote set-active)) (set-active box nil)) box))) (quote ((0 0 1 0 nil 0) (3 0 2 0 nil 0) (6 0 3 0 nil 0) (5 0 3 1 nil 0) (4 0 3 2 nil 0) (2 0 7 1 nil 0) (1 0 7 2 nil 0))) nil 6.1))