; OM File Header - Saved 2015/06/19 22:29:30
; (6.1 :patc (om-make-point 226 60) (om-make-point 1138 489) (om-make-point 929 841) "" 183 0 "2015/06/19 16:23:23" "2015/06/19 22:29:30")
; End File Header
; External resources 
; (list (list (quote :abstraction) "#P\"single-rhythmic-contour.omp\""))
(in-package :om)(load-lib-for (quote nil))(setf *om-current-persistent* (om-load-patch1 "multi-contour" (quote ((let ((box (om-load-boxcall (quote genfun) "APPROX-M" (quote approx-m) (quote ((om-load-inputfun (quote input-funbox) "pitch list (midicents)" "SELF" 6000) (om-load-inputfun (quote input-funbox) "tone division" "APPROX" 2))) (om-make-point 436 394) nil nil nil nil 1))) (when (fboundp (quote set-active)) (set-active box nil)) box) (let ((box (om-load-boxcall (quote genfun) "INTERPOLATION" (quote interpolation) (quote ((om-load-inputfun (quote input-funbox) "number or list" "BEGIN" 0) (om-load-inputfun (quote input-funbox) "number or list" "END" 1) (om-load-inputfun (quote input-funbox) "integer" "SAMPLES" 5) (om-load-inputfun (quote input-funbox) "number" "CURVE" 0.0))) (om-make-point 459 272) nil nil nil nil 1))) (when (fboundp (quote set-active)) (set-active box nil)) box) (let ((box (om-load-boxcall (quote bastype) "aux 2" (quote t) (quote nil) (om-make-point 417 90) (om-make-point 46 30) -800 "-800" nil))) (when (fboundp (quote set-active)) (set-active box nil)) box) (let ((box (om-load-boxcall (quote bastype) "aux" (quote t) (quote nil) (om-make-point 512 94) (om-make-point 48 30) 1600 "1600" nil))) (when (fboundp (quote set-active)) (set-active box nil)) box) (let ((box (om-load-boxcall (quote lispfun) "MAPCAR" (quote mapcar) (quote ((om-load-inputfun (quote input-funbox) "FUNCTION" "FUNCTION" 0) (om-load-inputfun (quote input-funbox) "LIST" "LIST" 0) (om-load-inputfun (quote input-funbox) "add-input" "add-input" 0))) (om-make-point 249 527) (om-make-point 110 43) nil nil nil 1))) (when (fboundp (quote set-active)) (set-active box nil)) box) (let ((box (om-load-boxcall (quote lispfun) "ARR-TRANSPOSE" (quote om-darwin::arr-transpose) (quote ((om-load-inputfun (quote input-funbox) "ARR" "ARR" nil) (om-load-inputfun (quote input-funbox) "DELTA" "DELTA" nil))) (om-make-point 58 321) nil nil "l" nil 1))) (when (fboundp (quote set-active)) (set-active box nil)) box) (let ((box (om-load-boxin "range" 1 (om-make-point 301 6) "" "range" nil nil))) (when (fboundp (quote set-active)) (set-active box nil)) box) (let ((box (om-load-boxin "num-contours" 0 (om-make-point 78 56) "" "num-contours" 3 nil))) (when (fboundp (quote set-active)) (set-active box nil)) box) (let ((box (om-load-boxout "output" 0 (om-make-point 332 619) (quote ((om-load-inputfun (quote input-funbox) "" "out" nil))) nil nil))) (when (fboundp (quote set-active)) (set-active box nil)) box) (let ((box (om-load-boxcall (quote genfun) "REPEAT-N" (quote repeat-n) (quote ((om-load-inputfun (quote input-funbox) "something" "SELF" nil) (om-load-inputfun (quote input-funbox) "times" "N" 0))) (om-make-point 160 241) nil nil nil nil 1))) (when (fboundp (quote set-active)) (set-active box nil)) box) (let ((box (om-load-boxcall (quote patch-box) "single-rhythmic-contour" (quote ("elements" "pizz contours" "single-rhythmic-contour")) (quote ((om-load-inputfun (quote input-funbox) "" "input" nil))) (om-make-point 259 104) nil (list (list (list 0 1/4 1 7000) (list 1/4 3/16 1 5800) (list 7/16 1/8 1 6300) (list 9/16 1/8 1 5700) (list 11/16 1/8 1 5800) (list 13/16 1/8 1 5100))) nil nil 1))) (when (fboundp (quote set-active)) (set-active box nil)) box))) (quote ((1 0 0 0 nil 0) (2 0 1 0 nil 0) (3 0 1 1 nil 0) (7 0 1 2 nil 0) (5 0 4 0 nil 0) (9 0 4 1 nil 0) (0 0 4 2 nil 0) (4 0 8 0 nil 0) (10 0 9 0 nil 0) (7 0 9 1 nil 0) (6 0 10 0 nil 0))) nil 6.1))
