; OM File Header - Saved 2015/06/19 18:08:55
; (6.1 :patc (om-make-point 172 10) (om-make-point 1166 633) (om-make-point 1009 978) "" 183 0 "2015/06/19 13:35:59" "2015/06/19 18:08:55")
; End File Header
; External resources 
; (list (list (quote :abstraction) "#P\"../contours and pitch mapping/ratio2timesig.oml\"" "#P\"single-contour (genetic).omp\""))
(in-package :om)(load-lib-for (quote ("om-darwin")))(setf *om-current-persistent* (om-load-patch1 "single-rhythmic-contour" (quote ((let ((box (om-load-boxin "input" 0 (om-make-point 201 16) "" nil nil nil))) (when (fboundp (quote set-active)) (set-active box nil)) box) (let ((box (om-load-boxcall (quote lispfun) "APPLY" (quote apply) (quote ((om-load-inputfun (quote input-funbox) "FUNCTION" "FUNCTION" (quote +)) (om-load-inputfun (quote input-funbox) "ARG" "ARG" nil))) (om-make-point 249 388) nil nil nil nil 1))) (when (fboundp (quote set-active)) (set-active box nil)) box) (let ((box (om-load-boxcall (quote lispfun) "LENGTH" (quote length) (quote ((om-load-inputfun (quote input-funbox) "SEQUENCE" "SEQUENCE" nil))) (om-make-point 221 212) nil nil nil nil 1))) (when (fboundp (quote set-active)) (set-active box nil)) box) (let ((box (om-load-boxcall (quote genfun) "FIRST-N" (quote first-n) (quote ((om-load-inputfun (quote input-funbox) "a list" "LIST" nil) (om-load-inputfun (quote input-funbox) "number of elements" "N" 0))) (om-make-point 185 306) (om-make-point 132 59) nil nil nil 1))) (when (fboundp (quote set-active)) (set-active box nil)) box) (let ((box (om-load-boxcall (quote lispfun) "REGION-LEN" (quote om-darwin::region-len) (quote ((om-load-inputfun (quote input-funbox) "REGION" "REGION" nil))) (om-make-point 455 281) nil nil "l" nil 1))) (when (fboundp (quote set-active)) (set-active box nil)) box) (let ((box (om-load-boxcall (quote lispfun) "MAPCAR" (quote mapcar) (quote ((om-load-inputfun (quote input-funbox) "FUNCTION" "FUNCTION" nil) (om-load-inputfun (quote input-funbox) "LIST" "LIST" nil))) (om-make-point 493 374) nil nil nil nil 1))) (when (fboundp (quote set-active)) (set-active box nil)) box) (let ((box (om-load-boxcall (quote patch-box) "ratio2timesig" (quote ("elements" "contours and pitch mapping" "ratio2timesig")) (quote ((om-load-inputfun (quote input-funbox) "" "R" nil))) (om-make-point 349 422) nil (list (list 4 4)) nil nil 1))) (when (fboundp (quote set-active)) (set-active box nil)) box) (let ((box (om-load-boxcall (quote lispfun) "MAPCAR" (quote mapcar) (quote ((om-load-inputfun (quote input-funbox) "FUNCTION" "FUNCTION" nil) (om-load-inputfun (quote input-funbox) "LIST" "LIST" nil))) (om-make-point 637 453) nil nil nil nil 1))) (when (fboundp (quote set-active)) (set-active box nil)) box) (let ((box (om-load-boxcall (quote lispfun) "REGION-START" (quote om-darwin::region-start) (quote ((om-load-inputfun (quote input-funbox) "REGION" "REGION" nil))) (om-make-point 580 289) nil nil "l" nil 1))) (when (fboundp (quote set-active)) (set-active box nil)) box) (let ((box (om-load-boxcall (quote lispfun) "MAKE-ARR" (quote om-darwin::make-arr) (quote ((om-load-inputfun (quote input-funbox) "STARTS" "STARTS" nil) (om-load-inputfun (quote input-funbox) "PITCHES" "PITCHES" nil) (om-load-inputkeyword (quote input-keyword) "" "time-sig" (quote :time-sig) nil nil) (om-load-inputkeyword (quote input-keyword) "" "lengths" (quote :lengths) nil nil))) (om-make-point 98 518) (om-make-point 129 43) nil nil nil 1))) (when (fboundp (quote set-active)) (set-active box nil)) box) (let ((box (om-load-editor-box1 "GA-ENGINE" (quote om-darwin::ga-engine) (quote ((om-load-inputfun (quote input-funbox) "object" "self" nil) (om-load-inputfun (quote input-funbox) "" "model" nil) (om-load-inputfun (quote input-funbox) "" "fitness-function" nil))) (om-make-point 245 642) (om-make-point 133 98) (let ((om-darwin::ga (mki (quote om-darwin::ga-engine)))) (setf (om-darwin::model om-darwin::ga) (let ((om-darwin::spec (if (find-class (quote om-darwin::om-specimen) nil) (make-instance (quote om-darwin::om-specimen) :raw-genotype (list 50 85 131 23 22 62 235) :decoder nil :operons nil :pheno nil :from-file t)))) (setf (om-darwin::raw-genotype om-darwin::spec) (list 50 85 131 23 22 62 235)) (om-darwin::update om-darwin::spec) om-darwin::spec)) (setf (om-darwin::population om-darwin::ga) (list (list 0 (let ((om-darwin::spec (if (find-class (quote om-darwin::om-specimen) nil) (make-instance (quote om-darwin::om-specimen) :raw-genotype (list 15 234 175 35 122 182 21) :decoder nil :operons nil :pheno nil :from-file t)))) (setf (om-darwin::raw-genotype om-darwin::spec) (list 15 234 175 35 122 182 21)) (om-darwin::update om-darwin::spec) om-darwin::spec) 0) (list 0 (let ((om-darwin::spec (if (find-class (quote om-darwin::om-specimen) nil) (make-instance (quote om-darwin::om-specimen) :raw-genotype (list 113 81 116 135 222 235 105) :decoder nil :operons nil :pheno nil :from-file t)))) (setf (om-darwin::raw-genotype om-darwin::spec) (list 113 81 116 135 222 235 105)) (om-darwin::update om-darwin::spec) om-darwin::spec) 0) (list 0 (let ((om-darwin::spec (if (find-class (quote om-darwin::om-specimen) nil) (make-instance (quote om-darwin::om-specimen) :raw-genotype (list 105 52 132 145 33 24 200) :decoder nil :operons nil :pheno nil :from-file t)))) (setf (om-darwin::raw-genotype om-darwin::spec) (list 105 52 132 145 33 24 200)) (om-darwin::update om-darwin::spec) om-darwin::spec) 0) (list 0 (let ((om-darwin::spec (if (find-class (quote om-darwin::om-specimen) nil) (make-instance (quote om-darwin::om-specimen) :raw-genotype (list 217 3 6 2 228 44 4) :decoder nil :operons nil :pheno nil :from-file t)))) (setf (om-darwin::raw-genotype om-darwin::spec) (list 217 3 6 2 228 44 4)) (om-darwin::update om-darwin::spec) om-darwin::spec) 0) (list 0 (let ((om-darwin::spec (if (find-class (quote om-darwin::om-specimen) nil) (make-instance (quote om-darwin::om-specimen) :raw-genotype (list 175 165 54 141 31 213 233) :decoder nil :operons nil :pheno nil :from-file t)))) (setf (om-darwin::raw-genotype om-darwin::spec) (list 175 165 54 141 31 213 233)) (om-darwin::update om-darwin::spec) om-darwin::spec) 0) (list 0 (let ((om-darwin::spec (if (find-class (quote om-darwin::om-specimen) nil) (make-instance (quote om-darwin::om-specimen) :raw-genotype (list 84 115 84 43 74 170 209) :decoder nil :operons nil :pheno nil :from-file t)))) (setf (om-darwin::raw-genotype om-darwin::spec) (list 84 115 84 43 74 170 209)) (om-darwin::update om-darwin::spec) om-darwin::spec) 0) (list 0 (let ((om-darwin::spec (if (find-class (quote om-darwin::om-specimen) nil) (make-instance (quote om-darwin::om-specimen) :raw-genotype (list 18 190 234 47 173 54 57) :decoder nil :operons nil :pheno nil :from-file t)))) (setf (om-darwin::raw-genotype om-darwin::spec) (list 18 190 234 47 173 54 57)) (om-darwin::update om-darwin::spec) om-darwin::spec) 0) (list 0 (let ((om-darwin::spec (if (find-class (quote om-darwin::om-specimen) nil) (make-instance (quote om-darwin::om-specimen) :raw-genotype (list 175 27 199 229 35 158 9) :decoder nil :operons nil :pheno nil :from-file t)))) (setf (om-darwin::raw-genotype om-darwin::spec) (list 175 27 199 229 35 158 9)) (om-darwin::update om-darwin::spec) om-darwin::spec) 0) (list 0 (let ((om-darwin::spec (if (find-class (quote om-darwin::om-specimen) nil) (make-instance (quote om-darwin::om-specimen) :raw-genotype (list 134 14 206 43 107 156 155) :decoder nil :operons nil :pheno nil :from-file t)))) (setf (om-darwin::raw-genotype om-darwin::spec) (list 134 14 206 43 107 156 155)) (om-darwin::update om-darwin::spec) om-darwin::spec) 0) (list 0 (let ((om-darwin::spec (if (find-class (quote om-darwin::om-specimen) nil) (make-instance (quote om-darwin::om-specimen) :raw-genotype (list 32 88 242 171 85 154 227) :decoder nil :operons nil :pheno nil :from-file t)))) (setf (om-darwin::raw-genotype om-darwin::spec) (list 32 88 242 171 85 154 227)) (om-darwin::update om-darwin::spec) om-darwin::spec) 0))) (setf (om-darwin::generation om-darwin::ga) 0) (setf (om-darwin::result om-darwin::ga) (let ((newobj (when (find-class (quote chord-seq) nil) (make-instance (quote chord-seq) :lmidic (quote ((7000) (5800) (6300) (5500) (5700) (4800))) :lonset (quote (0 500 1000 1500 2000 2500 3000)) :ldur (quote ((500) (500) (500) (500) (500) (500))) :lvel (quote ((100) (100) (100) (100) (100) (100))) :loffset (quote ((0) (0) (0) (0) (0) (0))) :lchan (quote ((1) (1) (1) (1) (1) (1))) :legato 0)))) (load-port-info newobj (quote ((0) (0) (0) (0) (0) (0)))) (init-mus-color newobj (quote nil)) (set-extra-pairs newobj (quote nil)) (set-patch-pairs newobj (quote nil)) (set-name newobj nil) (set-tonalite newobj nil) newobj)) om-darwin::ga) nil nil (pairlis (quote (scale show-stems cursor-mode obj-mode score-mode winpos winsize mode grillestep notechancolor? zoom player inport outport deltapict cmnpref staff fontsize approx)) (list nil (quote t) (quote :normal) 1 0 (om-make-point 400 20) (om-make-point 370 280) 0 1000 nil 1 (quote :midi-player) nil nil (om-make-point 0 0) (let ((newobj (make-instance (quote edition-values)))) (setf (paper-size newobj) (om-make-point 600 800)) (setf (top-margin newobj) 2) (setf (left-margin newobj) 1) (setf (right-margin newobj) 1) (setf (bottom-margin newobj) 1) (setf (orientation newobj) nil) (setf (scale newobj) nil) (setf (system-space newobj) (quote (1))) (setf (system-color newobj) (quote nil)) (setf (line-space newobj) 1) (setf (title newobj) nil) (setf (show-title? newobj) nil) (setf (show-page? newobj) nil) (setf (sheet-id newobj) nil) (setf (page-mode newobj) nil) newobj) (quote g) 24 2)) t nil nil nil))) (when (fboundp (quote set-active)) (set-active box nil)) box) (let ((box (om-load-boxout "output" 0 (om-make-point 122 668) (quote ((om-load-inputfun (quote input-funbox) "" "out" nil))) nil nil))) (when (fboundp (quote set-active)) (set-active box nil)) box) (let ((box (om-load-boxcall (quote patch-box) "single-contour (genetic)" (quote ("elements" "pizz contours" "single-contour (genetic)")) (quote ((om-load-inputfun (quote input-funbox) "" "range" (list 48 72)))) (om-make-point 61 108) nil nil "&" nil 1))) (when (fboundp (quote set-active)) (set-active box nil)) box) (let ((box (om-load-boxcall (quote lispfun) "PHENOTYPE" (quote om-darwin::phenotype) (quote ((om-load-inputfun (quote input-funbox) "SELF" "SELF" nil))) (om-make-point 683 347) nil nil "&" nil 1))) (when (fboundp (quote set-active)) (set-active box nil)) box) (let ((box (om-load-boxcall (quote genfun) "EMBED-SPECIES" (quote embed-species) (quote ((om-load-inputfun (quote input-funbox) "" "SPEC" nil))) (om-make-point 689 233) nil nil nil nil 1))) (when (fboundp (quote set-active)) (set-active box nil)) box) (let ((box (om-load-editor-box1 "VOICE" (quote voice) (quote ((om-load-inputfun (quote input-funbox) "object" "self" nil) (om-load-inputfun (quote input-funbox) "a list representing a rhythm tree" "tree" (list (quote ?) (list (list (list 4 4) (list 1 1 1 1))))) (om-load-inputfun (quote input-funbox) "a chord object, a list of chords, a list of midics, a list of lists of midics..." "chords" (list (let ((thechord (make-instance (quote chord) :lmidic (quote (6000)) :ldur (quote (1000)) :lvel (quote (100)) :loffset (quote (0)) :lchan (quote (1))))) (load-port-info thechord (quote (0))) (init-mus-color thechord (quote nil)) (set-extra-pairs thechord (quote nil)) (set-tonalite thechord nil) thechord))) (om-load-inputfun (quote input-funbox) "frequency of the quarter-note (default 60/mn)" "tempo" 60) (om-load-inputfun (quote input-funbox) "overlapping percentage between every successive chords, calculated from the second chord's duration" "legato" 100) (om-load-inputfun (quote input-funbox) "sub lists (one sub list per chord) indicating notes to be tied to notes of the same value, in a next chord" "ties" nil))) (om-make-point 455 585) (om-make-point 419 103) (if (find-class (quote poly) nil) (let ((newobj (make-instance (quote poly) :voices (list (let ((newobj (when (find-class (quote voice) nil) (make-instance (quote voice) :tree (quote (1 (((4 4) ((1 (3 1)) (1 (1.0 1)) (1 (1.0 2 1)) (1 (1.0 3))))))) :chords (load-obj-list-from-save (quote ((let ((thechord (make-instance (quote chord) :lmidic (quote (7100)) :ldur (quote (500)) :lvel (quote (100)) :loffset (quote (0)) :lchan (quote (1))))) (load-port-info thechord (quote (0))) (init-mus-color thechord (quote nil)) (set-extra-pairs thechord (quote nil)) (set-tonalite thechord nil) thechord) (let ((thechord (make-instance (quote chord) :lmidic (quote (5900)) :ldur (quote (167)) :lvel (quote (100)) :loffset (quote (0)) :lchan (quote (1))))) (load-port-info thechord (quote (0))) (init-mus-color thechord (quote nil)) (set-extra-pairs thechord (quote nil)) (set-tonalite thechord nil) thechord) (let ((thechord (make-instance (quote chord) :lmidic (quote (6200)) :ldur (quote (333)) :lvel (quote (100)) :loffset (quote (0)) :lchan (quote (1))))) (load-port-info thechord (quote (0))) (init-mus-color thechord (quote nil)) (set-extra-pairs thechord (quote nil)) (set-tonalite thechord nil) thechord) (let ((thechord (make-instance (quote chord) :lmidic (quote (5100)) :ldur (quote (333)) :lvel (quote (100)) :loffset (quote (0)) :lchan (quote (1))))) (load-port-info thechord (quote (0))) (init-mus-color thechord (quote nil)) (set-extra-pairs thechord (quote nil)) (set-tonalite thechord nil) thechord) (let ((thechord (make-instance (quote chord) :lmidic (quote (5700)) :ldur (quote (167)) :lvel (quote (100)) :loffset (quote (0)) :lchan (quote (1))))) (load-port-info thechord (quote (0))) (init-mus-color thechord (quote nil)) (set-extra-pairs thechord (quote nil)) (set-tonalite thechord nil) thechord) (let ((thechord (make-instance (quote chord) :lmidic (quote (4900)) :ldur (quote (500)) :lvel (quote (100)) :loffset (quote (0)) :lchan (quote (1))))) (load-port-info thechord (quote (0))) (init-mus-color thechord (quote nil)) (set-extra-pairs thechord (quote nil)) (set-tonalite thechord nil) thechord)))) :tempo (quote ((1/4 90) nil)) :legato 100 :ties (quote (nil nil nil nil nil nil)))))) (load-port-info newobj (quote nil)) (init-mus-color newobj (quote nil)) (set-extra-pairs newobj (quote nil)) (set-patch-pairs newobj (quote nil)) (set-name newobj nil) (set-tonalite newobj nil) newobj)) :from-file t))) (load-port-info newobj (quote (nil))) (init-mus-color newobj (quote nil)) (set-extra-pairs newobj (quote nil)) (set-patch-pairs newobj (quote nil)) (set-name newobj nil) (set-tonalite newobj nil) newobj)) nil nil (pairlis (quote (scale show-stems cursor-mode obj-mode score-mode winpos winsize mode grillestep notechancolor? zoom player inport outport deltapict cmnpref staff fontsize approx)) (list nil (quote t) (quote :normal) 1 0 (om-make-point 400 20) (om-make-point 370 280) 0 1000 nil 1 (quote :midi-player) nil nil (om-make-point 0 0) (let ((newobj (make-instance (quote edition-values)))) (setf (paper-size newobj) (om-make-point 600 800)) (setf (top-margin newobj) 2) (setf (left-margin newobj) 1) (setf (right-margin newobj) 1) (setf (bottom-margin newobj) 1) (setf (orientation newobj) nil) (setf (scale newobj) nil) (setf (system-space newobj) (quote (1))) (setf (system-color newobj) (quote nil)) (setf (line-space newobj) 1) (setf (title newobj) nil) (setf (show-title? newobj) nil) (setf (show-page? newobj) nil) (setf (sheet-id newobj) nil) (setf (page-mode newobj) nil) newobj) (quote g) 24 2)) t nil nil nil))) (when (fboundp (quote set-active)) (set-active box nil)) box) (let ((box (om-load-boxcall (quote bastype) "aux 4" (quote t) (quote nil) (om-make-point 349 22) (om-make-point 90 30) (list 6000 6000) "(6000 6000)" nil))) (when (fboundp (quote set-active)) (set-active box nil)) box) (let ((box (om-load-boxcall (quote bastype) "aux 3" (quote t) (quote nil) (om-make-point 292 58) (om-make-point 27 30) 6 "6" nil))) (when (fboundp (quote set-active)) (set-active box nil)) box) (let ((box (om-load-boxcall (quote bastype) "aux 2" (quote t) (quote nil) (om-make-point 516 73) (om-make-point 48 30) (list 2 3) "(2 3)" nil))) (when (fboundp (quote set-active)) (set-active box nil)) box) (let ((box (om-load-boxcall (quote bastype) "aux" (quote t) (quote nil) (om-make-point 426 73) (om-make-point 46 30) 1/16 "1/16" nil))) (when (fboundp (quote set-active)) (set-active box nil)) box) (let ((box (om-load-boxcall (quote genfun) "MAKE-GRID-MELODY" (quote make-grid-melody) (quote ((om-load-inputfun (quote input-funbox) "" "NUM-NOTES" 8) (om-load-inputfun (quote input-funbox) "" "RANGE" (list 6000 7200)) (om-load-inputfun (quote input-funbox) "" "NOTE-VALUE" 1/16) (om-load-inputfun (quote input-funbox) "" "LEN-RANGE" (list 1 4)))) (om-make-point 323 151) (om-make-point 193 67) nil nil nil 1))) (when (fboundp (quote set-active)) (set-active box nil)) box))) (quote ((3 0 1 1 nil 0) (12 0 2 0 nil 0) (5 0 3 0 nil 0) (2 0 3 1 nil 0) (4 0 5 0 nil 0) (13 0 5 1 nil 0) (1 0 6 0 nil 0) (8 0 7 0 nil 0) (13 0 7 1 nil 0) (7 0 9 0 nil 0) (12 0 9 1 nil 0) (6 0 9 2 nil 0) (5 0 9 3 nil 0) (9 0 11 0 nil 0) (0 0 12 0 nil 0) (14 0 13 0 nil 0) (20 0 14 0 nil 0) (9 0 15 0 nil 0) (17 0 20 0 nil 0) (16 0 20 1 nil 0) (19 0 20 2 nil 0) (18 0 20 3 nil 0))) nil 6.1))
