; OM File Header - Saved 2015/03/05 17:55:55
; (6.090014 :patc (om-make-point 172 60) (om-make-point 129 160) (om-make-point 934 552) "" 183 0 "2015/03/05 12:46:16" "2015/03/05 17:53:25")
; End File Header
(in-package :om)(load-lib-for (quote ("om-darwin")))(setf *om-current-persistent* (om-load-patch1 "lists bpf bpc" (quote ((let ((box (om-load-boxcall (quote abstraction) "bpc-ff" (om-load-patch-abs1 "bpc-ff" (quote ((let ((box (om-load-boxcall (quote bastype) "aux 5" (quote t) (quote nil) (om-make-point 34 509) (om-make-point 29 30) (quote +) "+" nil))) (when (fboundp (quote set-active)) (set-active box nil)) box) (let ((box (om-load-boxcall (quote lispfun) "APPLY" (quote apply) (quote ((om-load-inputfun (quote input-funbox) "FUNCTION" "FUNCTION" (quote +)) (om-load-inputfun (quote input-funbox) "ARG" "ARG" nil))) (om-make-point 79 610) nil nil nil nil 1))) (when (fboundp (quote set-active)) (set-active box nil)) box) (let ((box (om-load-boxcall (quote lispfun) "MAPCAR" (quote mapcar) (quote ((om-load-inputfun (quote input-funbox) "FUNCTION" "FUNCTION" nil) (om-load-inputfun (quote input-funbox) "LIST" "LIST" nil))) (om-make-point 149 544) nil nil nil nil 1))) (when (fboundp (quote set-active)) (set-active box nil)) box) (let ((box (om-load-boxcall (quote bastype) "aux 4" (quote t) (quote nil) (om-make-point 105 412) (om-make-point 48 30) (list 3 5) "(3 5)" nil))) (when (fboundp (quote set-active)) (set-active box nil)) box) (let ((box (om-load-boxcall (quote lispfun) "WITHIN-M" (quote om-darwin::within-m) (quote ((om-load-inputfun (quote input-funbox) "SELF" "SELF" nil) (om-load-inputfun (quote input-funbox) "MIN" "MIN" nil))) (om-make-point 88 489) nil nil "l" nil 1))) (when (fboundp (quote set-active)) (set-active box nil)) box) (let ((box (om-load-boxcall (quote bastype) "aux 2" (quote t) (quote nil) (om-make-point 324 346) (om-make-point 39 30) 1/2 "1/2" nil))) (when (fboundp (quote set-active)) (set-active box nil)) box) (let ((box (om-load-boxcall (quote genfun) "OM^ 2" (quote om^) (quote ((om-load-inputfun (quote input-funbox) "number or list" "A" 0) (om-load-inputfun (quote input-funbox) "number or list" "B" 1/2))) (om-make-point 212 447) nil nil nil nil 1))) (when (fboundp (quote set-active)) (set-active box nil)) box) (let ((box (om-load-boxcall (quote genfun) "OM+" (quote om+) (quote ((om-load-inputfun (quote input-funbox) "number or list" "FUN1" 0) (om-load-inputfun (quote input-funbox) "number or list" "FUN2" 0))) (om-make-point 182 391) nil nil nil nil 1))) (when (fboundp (quote set-active)) (set-active box nil)) box) (let ((box (om-load-boxcall (quote bastype) "aux" (quote t) (quote nil) (om-make-point 313 260) (om-make-point 27 30) 2 "2" nil))) (when (fboundp (quote set-active)) (set-active box nil)) box) (let ((box (om-load-boxcall (quote genfun) "OM^" (quote om^) (quote ((om-load-inputfun (quote input-funbox) "number or list" "A" 1) (om-load-inputfun (quote input-funbox) "number or list" "B" 1))) (om-make-point 263 328) nil nil nil nil 1))) (when (fboundp (quote set-active)) (set-active box nil)) box) (let ((box (om-load-boxcall (quote bastype) "aux" (quote t) (quote nil) (om-make-point 143 258) (om-make-point 27 30) 2 "2" nil))) (when (fboundp (quote set-active)) (set-active box nil)) box) (let ((box (om-load-boxcall (quote genfun) "OM^" (quote om^) (quote ((om-load-inputfun (quote input-funbox) "number or list" "A" 1) (om-load-inputfun (quote input-funbox) "number or list" "B" 1))) (om-make-point 152 328) nil nil nil nil 1))) (when (fboundp (quote set-active)) (set-active box nil)) box) (let ((box (om-load-boxcall (quote genfun) "X->DX" (quote x->dx) (quote ((om-load-inputfun (quote input-funbox) "a list of numbers" "SELF" 0))) (om-make-point 250 241) nil nil nil nil 1))) (when (fboundp (quote set-active)) (set-active box nil)) box) (let ((box (om-load-boxcall (quote genfun) "X->DX" (quote x->dx) (quote ((om-load-inputfun (quote input-funbox) "a list of numbers" "SELF" 0))) (om-make-point 73 226) nil nil nil nil 1))) (when (fboundp (quote set-active)) (set-active box nil)) box) (let ((box (om-load-boxcall (quote lispfun) "X-POINTS" (quote x-points) (quote ((om-load-inputfun (quote input-funbox) "SELF" "SELF" nil))) (om-make-point 127 159) nil nil nil nil 1))) (when (fboundp (quote set-active)) (set-active box nil)) box) (let ((box (om-load-boxcall (quote lispfun) "Y-POINTS" (quote y-points) (quote ((om-load-inputfun (quote input-funbox) "SELF" "SELF" nil))) (om-make-point 244 164) nil nil nil nil 1))) (when (fboundp (quote set-active)) (set-active box nil)) box) (let ((box (om-load-boxcall (quote lispfun) "PHENOTYPE" (quote om-darwin::phenotype) (quote ((om-load-inputfun (quote input-funbox) "SELF" "SELF" nil))) (om-make-point 114 80) nil nil "&" nil 1))) (when (fboundp (quote set-active)) (set-active box nil)) box) (let ((box (om-load-boxin "input" 0 (om-make-point 231 15) "" nil nil nil))) (when (fboundp (quote set-active)) (set-active box nil)) box) (let ((box (om-load-boxout "output" 0 (om-make-point 198 656) (quote ((om-load-inputfun (quote input-funbox) "" "out" nil))) nil nil))) (when (fboundp (quote set-active)) (set-active box nil)) box))) (quote ((0 0 1 0 nil 0) (2 0 1 1 nil 0) (4 0 2 0 nil 0) (6 0 2 1 nil 0) (3 0 4 1 nil 0) (7 0 6 0 nil 0) (5 0 6 1 nil 0) (11 0 7 0 nil 0) (9 0 7 1 nil 0) (12 0 9 0 nil 0) (8 0 9 1 nil 0) (13 0 11 0 nil 0) (10 0 11 1 nil 0) (15 0 12 0 nil 0) (14 0 13 0 nil 0) (16 0 14 0 nil 0) (16 0 15 0 nil 0) (17 0 16 0 nil 0) (1 0 18 0 nil 0))) 6.090014 nil "" (om-make-point 200 200) (om-make-point 500 400)) (quote ((om-load-inputfun (quote input-funbox) "" "input" nil))) (om-make-point 734 81) nil (list nil) "l" "bpc-ff"))) (when (fboundp (quote set-active)) (set-active box nil)) box) (let ((box (om-load-boxcall (quote abstraction) "bpf-ff" (om-load-patch-abs1 "bpf-ff" (quote ((let ((box (om-load-boxcall (quote lispfun) "Y-POINTS" (quote y-points) (quote ((om-load-inputfun (quote input-funbox) "SELF" "SELF" nil))) (om-make-point 166 192) nil nil nil nil 1))) (when (fboundp (quote set-active)) (set-active box nil)) box) (let ((box (om-load-boxcall (quote lispfun) "PHENOTYPE" (quote om-darwin::phenotype) (quote ((om-load-inputfun (quote input-funbox) "SELF" "SELF" nil))) (om-make-point 152 108) nil nil nil nil 1))) (when (fboundp (quote set-active)) (set-active box nil)) box) (let ((box (om-load-boxin "input" 0 (om-make-point 204 27) "" nil nil nil))) (when (fboundp (quote set-active)) (set-active box nil)) box) (let ((box (om-load-boxout "output" 0 (om-make-point 66 324) (quote ((om-load-inputfun (quote input-funbox) "" "out" nil))) nil nil))) (when (fboundp (quote set-active)) (set-active box nil)) box) (let ((box (om-load-boxcall (quote bastype) "aux" (quote t) (quote nil) (om-make-point 52 110) (om-make-point 29 30) (quote +) "+" nil))) (when (fboundp (quote set-active)) (set-active box nil)) box) (let ((box (om-load-boxcall (quote lispfun) "APPLY" (quote apply) (quote ((om-load-inputfun (quote input-funbox) "FUNCTION" "FUNCTION" (quote +)) (om-load-inputfun (quote input-funbox) "ARG" "ARG" nil))) (om-make-point 110 243) nil nil nil nil 1))) (when (fboundp (quote set-active)) (set-active box nil)) box))) (quote ((1 0 0 0 nil 0) (2 0 1 0 nil 0) (5 0 3 0 nil 0) (4 0 5 0 nil 0) (0 0 5 1 nil 0))) 6.090014 nil "" (om-make-point 200 200) (om-make-point 500 400)) (quote ((om-load-inputfun (quote input-funbox) "" "input" nil))) (om-make-point 505 163) nil (list nil) "l" "bpf-ff"))) (when (fboundp (quote set-active)) (set-active box nil)) box) (let ((box (om-load-boxcall (quote abstraction) "bits-ff" (om-load-patch-abs1 "bits-ff" (quote ((let ((box (om-load-boxcall (quote lispfun) "PHENOTYPE" (quote om-darwin::phenotype) (quote ((om-load-inputfun (quote input-funbox) "SELF" "SELF" nil))) (om-make-point 193 152) nil nil nil nil 1))) (when (fboundp (quote set-active)) (set-active box nil)) box) (let ((box (om-load-boxwithed1 (quote box-with-win) "alternate" (quote omloop) (quote ((om-load-inputfun (quote input-funbox) "" "input" nil))) (om-make-point 151 220) nil nil nil (list (let ((box (om-load-seqbox "INITDO" (quote initdo) (quote ((om-load-inputfun (quote input-funbox) "operations to do" "OP" nil))) (om-make-point 348 446) nil nil nil 0))) (when (fboundp (quote set-active)) (set-active box nil)) box) (let ((box (om-load-boxcall (quote lispfun) "CADR" (quote cadr) (quote ((om-load-inputfun (quote input-funbox) "X" "X" nil))) (om-make-point 207 244) nil nil nil nil 1))) (when (fboundp (quote set-active)) (set-active box nil)) box) (let ((box (om-load-boxcall (quote genfun) "OMIF 2" (quote omif) (quote ((om-load-inputfun (quote input-funbox) "IF" "TEST" 0) (om-load-inputfun (quote input-funbox) "THEN" "ACTION" 1) (om-load-inputfun (quote input-funbox) "ELSE" "ELSE" 0))) (om-make-point 117 427) nil nil nil nil 1))) (when (fboundp (quote set-active)) (set-active box nil)) box) (let ((box (om-load-boxcall (quote lispfun) "CAR" (quote car) (quote ((om-load-inputfun (quote input-funbox) "X" "X" nil))) (om-make-point 165 195) nil nil nil nil 1))) (when (fboundp (quote set-active)) (set-active box nil)) box) (let ((box (om-load-boxcall (quote genfun) "OM=" (quote om=) (quote ((om-load-inputfun (quote input-funbox) "a number" "A" 0) (om-load-inputfun (quote input-funbox) "a number" "B" 0))) (om-make-point 130 281) (om-make-point 66 35) nil nil nil 1))) (when (fboundp (quote set-active)) (set-active box nil)) box) (let ((box (om-load-boxcall (quote lispfun) "CDR" (quote cdr) (quote ((om-load-inputfun (quote input-funbox) "X" "X" nil))) (om-make-point 90 205) nil nil nil nil 1))) (when (fboundp (quote set-active)) (set-active box nil)) box) (let ((box (om-load-boxcall (quote genfun) "OMIF" (quote omif) (quote ((om-load-inputfun (quote input-funbox) "IF" "TEST" nil) (om-load-inputfun (quote input-funbox) "THEN" "ACTION" nil))) (om-make-point 107 342) nil nil nil nil 1))) (when (fboundp (quote set-active)) (set-active box nil)) box) (let ((box (om-load-boxcall (quote genfun) "sum" (quote sum) (quote ((om-load-inputfun (quote input-funbox) "numbers to sum" "NUMBER" nil))) (om-make-point 159 506) (om-make-point 109 59) nil nil nil 3))) (when (fboundp (quote set-active)) (set-active box nil)) box) (let ((box (om-load-boxin "input" 0 (om-make-point 5 45) "" nil (list 0 1 1 0 0) nil))) (when (fboundp (quote set-active)) (set-active box nil)) box) (let ((box (om-load-boxcall (quote genfun) "onlist" (quote onlistloop) (quote ((om-load-inputfun (quote input-funbox) "list to iterate" "LIST" nil))) (om-make-point 138 107) nil nil nil nil 1))) (when (fboundp (quote set-active)) (set-active box nil)) box) (let ((box (om-load-seqbox "finally" (quote finaldo) (quote ((om-load-inputfun (quote input-funbox) "value to return" "VAL" nil))) (om-make-point 244 624) nil nil nil 0))) (when (fboundp (quote set-active)) (set-active box nil)) box) (let ((box (om-load-seqbox "eachTime" (quote loopdo) (quote ((om-load-inputfun (quote input-funbox) "operations to do" "OP" nil))) (om-make-point 92 604) nil nil nil 0))) (when (fboundp (quote set-active)) (set-active box nil)) box)) (quote ((9 0 1 0 nil 0) (6 0 2 0 nil 0) (9 0 3 0 nil 0) (3 0 4 0 nil 0) (1 0 4 1 nil 0) (9 0 5 0 nil 0) (5 0 6 0 nil 0) (4 0 6 1 nil 0) (2 0 7 0 nil 0) (8 0 9 0 nil 0) (7 1 10 0 nil 0) (7 0 11 0 nil 0))) 1 "alternate" nil))) (when (fboundp (quote set-active)) (set-active box nil)) box) (let ((box (om-load-boxin "input" 0 (om-make-point 204 27) "" nil nil nil))) (when (fboundp (quote set-active)) (set-active box nil)) box) (let ((box (om-load-boxout "output" 0 (om-make-point 66 324) (quote ((om-load-inputfun (quote input-funbox) "" "out" nil))) nil nil))) (when (fboundp (quote set-active)) (set-active box nil)) box))) (quote ((2 0 0 0 nil 0) (0 0 1 0 nil 0) (1 0 3 0 nil 0))) 6.090014 nil "" (om-make-point 200 200) (om-make-point 500 400)) (quote ((om-load-inputfun (quote input-funbox) "" "input" nil))) (om-make-point 214 175) nil (list nil) "l" "bits-ff"))) (when (fboundp (quote set-active)) (set-active box nil)) box) (let ((box (om-load-boxcall (quote genfun) "DEFINE-SPECIES" (quote define-species) (quote ((om-load-inputfun (quote input-funbox) "" "FUN" nil))) (om-make-point 72 196) nil nil nil nil 1))) (when (fboundp (quote set-active)) (set-active box nil)) box) (let ((box (om-load-editor-box1 "GA-ENGINE" (quote om-darwin::ga-engine) (quote ((om-load-inputfun (quote input-funbox) "object" "self" nil) (om-load-inputfun (quote input-funbox) "" "model" nil) (om-load-inputfun (quote input-funbox) "" "fitness-function" nil))) (om-make-point 58 299) (om-make-point 186 181) (let ((om-darwin::ga (if (find-class (quote om-darwin::ga-engine) nil) (make-instance (quote om-darwin::ga-engine) :model (let ((om-darwin::spec (if (find-class (quote om-darwin::om-specimen) nil) (make-instance (quote om-darwin::om-specimen) :operons nil :pheno nil :raw-genotype (list 78 37 19 201 92 117 249 94 187 97 158 93 50 111 25) :decoder nil :from-file t)))) (setf (om-darwin::raw-genotype om-darwin::spec) (list 78 37 19 201 92 117 249 94 187 97 158 93 50 111 25)) (om-darwin::update om-darwin::spec) om-darwin::spec) :fitness-function nil :from-file t)))) (setf (om-darwin::population om-darwin::ga) (list (list 0 (let ((om-darwin::spec (if (find-class (quote om-darwin::om-specimen) nil) (make-instance (quote om-darwin::om-specimen) :operons nil :pheno nil :raw-genotype (list 203 194 231 172 35 68 43 114 175 202 173 38 147 214 133) :decoder nil :from-file t)))) (setf (om-darwin::raw-genotype om-darwin::spec) (list 203 194 231 172 35 68 43 114 175 202 173 38 147 214 133)) (om-darwin::update om-darwin::spec) om-darwin::spec) 0) (list 1 (let ((om-darwin::spec (if (find-class (quote om-darwin::om-specimen) nil) (make-instance (quote om-darwin::om-specimen) :operons nil :pheno nil :raw-genotype (list 228 243 172 41 88 150 43 114 175 202 173 38 147 214 133) :decoder nil :from-file t)))) (setf (om-darwin::raw-genotype om-darwin::spec) (list 228 243 172 41 88 150 43 114 175 202 173 38 147 214 133)) (om-darwin::update om-darwin::spec) om-darwin::spec) 0) (list 2 (let ((om-darwin::spec (if (find-class (quote om-darwin::om-specimen) nil) (make-instance (quote om-darwin::om-specimen) :operons nil :pheno nil :raw-genotype (list 228 243 172 41 88 150 43 114 175 202 173 38 147 214 134) :decoder nil :from-file t)))) (setf (om-darwin::raw-genotype om-darwin::spec) (list 228 243 172 41 88 150 43 114 175 202 173 38 147 214 134)) (om-darwin::update om-darwin::spec) om-darwin::spec) 0) (list 3 (let ((om-darwin::spec (if (find-class (quote om-darwin::om-specimen) nil) (make-instance (quote om-darwin::om-specimen) :operons nil :pheno nil :raw-genotype (list 198 194 231 172 35 68 135 253 28 249 164 181 133 20 143) :decoder nil :from-file t)))) (setf (om-darwin::raw-genotype om-darwin::spec) (list 198 194 231 172 35 68 135 253 28 249 164 181 133 20 143)) (om-darwin::update om-darwin::spec) om-darwin::spec) 0) (list 4 (let ((om-darwin::spec (if (find-class (quote om-darwin::om-specimen) nil) (make-instance (quote om-darwin::om-specimen) :operons nil :pheno nil :raw-genotype (list 68 158 41 172 88 150 43 114 175 202 173 38 147 214 134) :decoder nil :from-file t)))) (setf (om-darwin::raw-genotype om-darwin::spec) (list 68 158 41 172 88 150 43 114 175 202 173 38 147 214 134)) (om-darwin::update om-darwin::spec) om-darwin::spec) 0) (list 5 (let ((om-darwin::spec (if (find-class (quote om-darwin::om-specimen) nil) (make-instance (quote om-darwin::om-specimen) :operons nil :pheno nil :raw-genotype (list 32 202 27 130 210 129 231 54 221 100 235 149 6 185 111) :decoder nil :from-file t)))) (setf (om-darwin::raw-genotype om-darwin::spec) (list 32 202 27 130 210 129 231 54 221 100 235 149 6 185 111)) (om-darwin::update om-darwin::spec) om-darwin::spec) 0) (list 6 (let ((om-darwin::spec (if (find-class (quote om-darwin::om-specimen) nil) (make-instance (quote om-darwin::om-specimen) :operons nil :pheno nil :raw-genotype (list 228 243 2 167 239 26 204 6 223 136 61 140 48 42 156) :decoder nil :from-file t)))) (setf (om-darwin::raw-genotype om-darwin::spec) (list 228 243 2 167 239 26 204 6 223 136 61 140 48 42 156)) (om-darwin::update om-darwin::spec) om-darwin::spec) 0) (list 7 (let ((om-darwin::spec (if (find-class (quote om-darwin::om-specimen) nil) (make-instance (quote om-darwin::om-specimen) :operons nil :pheno nil :raw-genotype (list 4 227 67 115 210 146 235 155 151 240 134 207 122 162 243) :decoder nil :from-file t)))) (setf (om-darwin::raw-genotype om-darwin::spec) (list 4 227 67 115 210 146 235 155 151 240 134 207 122 162 243)) (om-darwin::update om-darwin::spec) om-darwin::spec) 0) (list 8 (let ((om-darwin::spec (if (find-class (quote om-darwin::om-specimen) nil) (make-instance (quote om-darwin::om-specimen) :operons nil :pheno nil :raw-genotype (list 215 171 127 162 188 184 24 235 147 69 70 81 187 154 151) :decoder nil :from-file t)))) (setf (om-darwin::raw-genotype om-darwin::spec) (list 215 171 127 162 188 184 24 235 147 69 70 81 187 154 151)) (om-darwin::update om-darwin::spec) om-darwin::spec) 0) (list 9 (let ((om-darwin::spec (if (find-class (quote om-darwin::om-specimen) nil) (make-instance (quote om-darwin::om-specimen) :operons nil :pheno nil :raw-genotype (list 198 84 222 11 230 21 71 128 46 6 161 17 23 227 201) :decoder nil :from-file t)))) (setf (om-darwin::raw-genotype om-darwin::spec) (list 198 84 222 11 230 21 71 128 46 6 161 17 23 227 201)) (om-darwin::update om-darwin::spec) om-darwin::spec) 0))) (setf (om-darwin::generation om-darwin::ga) 17) (setf (om-darwin::result om-darwin::ga) (list 1 0 1 0 1 0 1 0 1 0 1 0 1 0 1)) om-darwin::ga) nil nil (pairlis (quote (scale show-stems cursor-mode obj-mode score-mode winpos winsize mode grillestep notechancolor? zoom player inport outport deltapict cmnpref staff fontsize approx)) (list nil (quote t) (quote :normal) 1 0 (om-make-point 503 105) (om-make-point 370 280) 0 1000 nil 1 (quote :midi-player) nil nil (om-make-point 0 0) (let ((newobj (make-instance (quote edition-values)))) (setf (paper-size newobj) (om-make-point 600 800)) (setf (top-margin newobj) 2) (setf (left-margin newobj) 1) (setf (right-margin newobj) 1) (setf (bottom-margin newobj) 1) (setf (orientation newobj) nil) (setf (scale newobj) nil) (setf (system-space newobj) (quote (1))) (setf (system-color newobj) (quote nil)) (setf (line-space newobj) 1) (setf (title newobj) nil) (setf (show-title? newobj) nil) (setf (show-page? newobj) nil) (setf (sheet-id newobj) nil) (setf (page-mode newobj) nil) newobj) (quote g) 24 2)) t nil nil nil))) (when (fboundp (quote set-active)) (set-active box nil)) box) (let ((box (om-load-boxcall (quote genfun) "DEFINE-SPECIES" (quote define-species) (quote ((om-load-inputfun (quote input-funbox) "" "FUN" nil))) (om-make-point 616 150) nil nil nil nil 1))) (when (fboundp (quote set-active)) (set-active box nil)) box) (let ((box (om-load-editor-box1 "GA-ENGINE" (quote om-darwin::ga-engine) (quote ((om-load-inputfun (quote input-funbox) "object" "self" nil) (om-load-inputfun (quote input-funbox) "" "model" nil) (om-load-inputfun (quote input-funbox) "" "fitness-function" nil))) (om-make-point 658 299) (om-make-point 186 181) (let ((om-darwin::ga (if (find-class (quote om-darwin::ga-engine) nil) (make-instance (quote om-darwin::ga-engine) :model (let ((om-darwin::spec (if (find-class (quote om-darwin::om-specimen) nil) (make-instance (quote om-darwin::om-specimen) :operons nil :pheno nil :raw-genotype (list 201 79 135 139 193 138 244 156 253 244 244 110 220 26 230 160 233 39 227 218) :decoder nil :from-file t)))) (setf (om-darwin::raw-genotype om-darwin::spec) (list 201 79 135 139 193 138 244 156 253 244 244 110 220 26 230 160 233 39 227 218)) (om-darwin::update om-darwin::spec) om-darwin::spec) :fitness-function nil :from-file t)))) (setf (om-darwin::population om-darwin::ga) (list (list 13.412971 (let ((om-darwin::spec (if (find-class (quote om-darwin::om-specimen) nil) (make-instance (quote om-darwin::om-specimen) :operons nil :pheno nil :raw-genotype (list 150 151 255 48 45 151 161 165 165 66 131 32 237 37 37 245 153 156 251 146) :decoder nil :from-file t)))) (setf (om-darwin::raw-genotype om-darwin::spec) (list 150 151 255 48 45 151 161 165 165 66 131 32 237 37 37 245 153 156 251 146)) (om-darwin::update om-darwin::spec) om-darwin::spec) 0) (list 13.957958 (let ((om-darwin::spec (if (find-class (quote om-darwin::om-specimen) nil) (make-instance (quote om-darwin::om-specimen) :operons nil :pheno nil :raw-genotype (list 146 151 255 50 48 151 161 165 165 66 131 32 237 37 37 241 153 156 251 146) :decoder nil :from-file t)))) (setf (om-darwin::raw-genotype om-darwin::spec) (list 146 151 255 50 48 151 161 165 165 66 131 32 237 37 37 241 153 156 251 146)) (om-darwin::update om-darwin::spec) om-darwin::spec) 0) (list 14.78891 (let ((om-darwin::spec (if (find-class (quote om-darwin::om-specimen) nil) (make-instance (quote om-darwin::om-specimen) :operons nil :pheno nil :raw-genotype (list 146 151 255 50 48 151 161 165 165 66 32 131 237 37 37 241 153 156 251 146) :decoder nil :from-file t)))) (setf (om-darwin::raw-genotype om-darwin::spec) (list 146 151 255 50 48 151 161 165 165 66 32 131 237 37 37 241 153 156 251 146)) (om-darwin::update om-darwin::spec) om-darwin::spec) 0) (list 14.836824 (let ((om-darwin::spec (if (find-class (quote om-darwin::om-specimen) nil) (make-instance (quote om-darwin::om-specimen) :operons nil :pheno nil :raw-genotype (list 146 151 255 48 43 151 161 165 165 66 131 32 237 37 37 241 153 156 252 146) :decoder nil :from-file t)))) (setf (om-darwin::raw-genotype om-darwin::spec) (list 146 151 255 48 43 151 161 165 165 66 131 32 237 37 37 241 153 156 252 146)) (om-darwin::update om-darwin::spec) om-darwin::spec) 0) (list 14.957958 (let ((om-darwin::spec (if (find-class (quote om-darwin::om-specimen) nil) (make-instance (quote om-darwin::om-specimen) :operons nil :pheno nil :raw-genotype (list 146 151 255 50 48 151 161 165 165 66 131 32 237 37 37 241 153 156 251 150) :decoder nil :from-file t)))) (setf (om-darwin::raw-genotype om-darwin::spec) (list 146 151 255 50 48 151 161 165 165 66 131 32 237 37 37 241 153 156 251 150)) (om-darwin::update om-darwin::spec) om-darwin::spec) 0) (list 15.382889 (let ((om-darwin::spec (if (find-class (quote om-darwin::om-specimen) nil) (make-instance (quote om-darwin::om-specimen) :operons nil :pheno nil :raw-genotype (list 147 153 253 46 43 151 161 165 165 66 131 32 237 37 37 245 153 156 251 146) :decoder nil :from-file t)))) (setf (om-darwin::raw-genotype om-darwin::spec) (list 147 153 253 46 43 151 161 165 165 66 131 32 237 37 37 245 153 156 251 146)) (om-darwin::update om-darwin::spec) om-darwin::spec) 0) (list 15.507805 (let ((om-darwin::spec (if (find-class (quote om-darwin::om-specimen) nil) (make-instance (quote om-darwin::om-specimen) :operons nil :pheno nil :raw-genotype (list 146 151 255 149 43 45 161 165 165 66 131 32 237 37 37 245 154 155 251 145) :decoder nil :from-file t)))) (setf (om-darwin::raw-genotype om-darwin::spec) (list 146 151 255 149 43 45 161 165 165 66 131 32 237 37 37 245 154 155 251 145)) (om-darwin::update om-darwin::spec) om-darwin::spec) 0) (list 15.58774 (let ((om-darwin::spec (if (find-class (quote om-darwin::om-specimen) nil) (make-instance (quote om-darwin::om-specimen) :operons nil :pheno nil :raw-genotype (list 146 151 255 149 43 45 161 165 165 66 131 32 237 37 37 245 153 156 251 146) :decoder nil :from-file t)))) (setf (om-darwin::raw-genotype om-darwin::spec) (list 146 151 255 149 43 45 161 165 165 66 131 32 237 37 37 245 153 156 251 146)) (om-darwin::update om-darwin::spec) om-darwin::spec) 0) (list 15.673168 (let ((om-darwin::spec (if (find-class (quote om-darwin::om-specimen) nil) (make-instance (quote om-darwin::om-specimen) :operons nil :pheno nil :raw-genotype (list 147 151 255 50 43 151 161 165 165 66 131 32 237 37 37 245 153 156 251 146) :decoder nil :from-file t)))) (setf (om-darwin::raw-genotype om-darwin::spec) (list 147 151 255 50 43 151 161 165 165 66 131 32 237 37 37 245 153 156 251 146)) (om-darwin::update om-darwin::spec) om-darwin::spec) 0) (list 15.776216 (let ((om-darwin::spec (if (find-class (quote om-darwin::om-specimen) nil) (make-instance (quote om-darwin::om-specimen) :operons nil :pheno nil :raw-genotype (list 146 151 255 48 43 151 161 165 165 66 131 32 237 37 37 241 153 156 252 145) :decoder nil :from-file t)))) (setf (om-darwin::raw-genotype om-darwin::spec) (list 146 151 255 48 43 151 161 165 165 66 131 32 237 37 37 241 153 156 252 145)) (om-darwin::update om-darwin::spec) om-darwin::spec) 0))) (setf (om-darwin::generation om-darwin::ga) 21) (setf (om-darwin::result om-darwin::ga) (let ((newobj (when (find-class (quote bpc) nil) (let ((newbpf (simple-bpf-from-list (quote (49 50 53 48 45 50 60 64 64 66)) (quote (30 32 35 37 37 43 52 55 49 45)) (quote bpc) 0))) (setf (bpfcolor newbpf) (om-make-color 0 0 0)) (set-name newbpf nil) newbpf)))) (when newobj) newobj)) om-darwin::ga) nil nil (pairlis (quote (scale show-stems cursor-mode obj-mode score-mode winpos winsize mode grillestep notechancolor? zoom player inport outport deltapict cmnpref staff fontsize approx)) (list nil (quote t) (quote :normal) 1 0 (om-make-point 503 105) (om-make-point 370 280) 0 1000 nil 1 (quote :midi-player) nil nil (om-make-point 0 0) (let ((newobj (make-instance (quote edition-values)))) (setf (paper-size newobj) (om-make-point 600 800)) (setf (top-margin newobj) 2) (setf (left-margin newobj) 1) (setf (right-margin newobj) 1) (setf (bottom-margin newobj) 1) (setf (orientation newobj) nil) (setf (scale newobj) nil) (setf (system-space newobj) (quote (1))) (setf (system-color newobj) (quote nil)) (setf (line-space newobj) 1) (setf (title newobj) nil) (setf (show-title? newobj) nil) (setf (show-page? newobj) nil) (setf (sheet-id newobj) nil) (setf (page-mode newobj) nil) newobj) (quote g) 24 2)) t nil nil nil))) (when (fboundp (quote set-active)) (set-active box nil)) box) (let ((box (om-load-boxcall (quote abstraction) "bpc" (om-load-patch-abs1 "bpc" (quote ((let ((box (om-load-boxcall (quote bastype) "aux 2" (quote t) (quote nil) (om-make-point 419 62) (om-make-point 34 30) 10 "10" nil))) (when (fboundp (quote set-active)) (set-active box nil)) box) (let ((box (om-load-boxcall (quote genfun) "REPEAT-N" (quote repeat-n) (quote ((om-load-inputfun (quote input-funbox) "something" "SELF" 10) (om-load-inputfun (quote input-funbox) "times" "N" 10))) (om-make-point 272 159) (om-make-point 123 59) nil nil nil 1))) (when (fboundp (quote set-active)) (set-active box nil)) box) (let ((box (om-load-boxcall (quote genfun) "OM-GENE" (quote om-gene) (quote ((om-load-inputfun (quote input-funbox) "minimum value" "MIN" 0) (om-load-inputfun (quote input-funbox) "maximum value" "MAX" 1))) (om-make-point 278 66) nil nil nil nil 1))) (when (fboundp (quote set-active)) (set-active box nil)) box) (let ((box (om-load-boxcall (quote bastype) "aux" (quote t) (quote nil) (om-make-point 311 11) (om-make-point 41 30) 100 "100" nil))) (when (fboundp (quote set-active)) (set-active box nil)) box) (let ((box (om-load-boxcall (quote bastype) "aux 2" (quote t) (quote nil) (om-make-point 211 78) (om-make-point 34 30) 10 "10" nil))) (when (fboundp (quote set-active)) (set-active box nil)) box) (let ((box (om-load-editor-box1 "BPC" (quote bpc) (quote ((om-load-inputfun (quote input-funbox) "object" "self" nil) (om-load-inputfun (quote input-funbox) "X coordinates (list)" "x-points" (list 0 100)) (om-load-inputfun (quote input-funbox) "Y coordinates (list)" "y-points" (list 0 100)) (om-load-inputfun (quote input-funbox) "precision (integer) [0 - 10]" "decimals" 0))) (om-make-point 162 279) (om-make-point 165 150) (let ((newobj (when (find-class (quote bpc) nil) (let ((newbpf (simple-bpf-from-list (quote (12 22 42 44 67 32 9 94 4 35)) (quote (80 64 1 93 79 22 21 23 56 14)) (quote bpc) 0))) (setf (bpfcolor newbpf) (om-make-color 0 0 0)) (set-name newbpf nil) newbpf)))) (when newobj) newobj) nil nil (pairlis (quote (picture winpos winsize)) (list nil (om-make-point 10 40) (om-make-point 335 275))) t nil nil nil))) (when (fboundp (quote set-active)) (set-active box nil)) box) (let ((box (om-load-boxcall (quote bastype) "aux" (quote t) (quote nil) (om-make-point 103 27) (om-make-point 41 30) 100 "100" nil))) (when (fboundp (quote set-active)) (set-active box nil)) box) (let ((box (om-load-boxcall (quote genfun) "OM-GENE" (quote om-gene) (quote ((om-load-inputfun (quote input-funbox) "minimum value" "MIN" 0) (om-load-inputfun (quote input-funbox) "maximum value" "MAX" 1))) (om-make-point 70 82) nil nil nil nil 1))) (when (fboundp (quote set-active)) (set-active box nil)) box) (let ((box (om-load-boxcall (quote genfun) "REPEAT-N" (quote repeat-n) (quote ((om-load-inputfun (quote input-funbox) "something" "SELF" 10) (om-load-inputfun (quote input-funbox) "times" "N" 10))) (om-make-point 64 175) (om-make-point 123 59) nil nil nil 1))) (when (fboundp (quote set-active)) (set-active box nil)) box) (let ((box (om-load-boxout "output" 0 (om-make-point 130 470) (quote ((om-load-inputfun (quote input-funbox) "" "out" nil))) nil nil))) (when (fboundp (quote set-active)) (set-active box nil)) box))) (quote ((2 0 1 0 nil 0) (0 0 1 1 nil 0) (3 0 2 1 nil 0) (8 0 5 1 nil 0) (1 0 5 2 nil 0) (6 0 7 1 nil 0) (7 0 8 0 nil 0) (4 0 8 1 nil 0) (5 0 9 0 nil 0))) 6.090014 nil "" (om-make-point 234 149) (om-make-point 577 573)) (quote nil) (om-make-point 573 33) nil (list nil) "l" "bpc"))) (when (fboundp (quote set-active)) (set-active box nil)) box) (let ((box (om-load-boxcall (quote abstraction) "bpf" (om-load-patch-abs1 "bpf" (quote ((let ((box (om-load-editor-box1 "BPF" (quote bpf) (quote ((om-load-inputfun (quote input-funbox) "object" "self" nil) (om-load-inputfun (quote input-funbox) "X coordinates (list)" "x-points" (list 0 100)) (om-load-inputfun (quote input-funbox) "Y coordinates (list)" "y-points" (list 0 100)) (om-load-inputfun (quote input-funbox) "precision (integer) [0 - 10]" "decimals" 0))) (om-make-point 219 299) (om-make-point 169 93) (let ((newobj (when (find-class (quote bpf) nil) (let ((newbpf (simple-bpf-from-list (quote (0 100 200 300 400 500 600 700 800 900)) (quote (41 20 79 21 27 37 50 70 29 38)) (quote bpf) 0))) (setf (bpfcolor newbpf) (om-make-color 0 0 0)) (set-name newbpf nil) newbpf)))) (when newobj) newobj) nil nil (pairlis (quote (picture winpos winsize)) (list nil (om-make-point 10 40) (om-make-point 335 275))) t nil nil nil))) (when (fboundp (quote set-active)) (set-active box nil)) box) (let ((box (om-load-boxcall (quote bastype) "aux" (quote t) (quote nil) (om-make-point 103 27) (om-make-point 41 30) 100 "100" nil))) (when (fboundp (quote set-active)) (set-active box nil)) box) (let ((box (om-load-boxcall (quote genfun) "OM-GENE" (quote om-gene) (quote ((om-load-inputfun (quote input-funbox) "minimum value" "MIN" 0) (om-load-inputfun (quote input-funbox) "maximum value" "MAX" 1))) (om-make-point 70 82) nil nil nil nil 1))) (when (fboundp (quote set-active)) (set-active box nil)) box) (let ((box (om-load-boxcall (quote genfun) "REPEAT-N" (quote repeat-n) (quote ((om-load-inputfun (quote input-funbox) "something" "SELF" 10) (om-load-inputfun (quote input-funbox) "times" "N" 10))) (om-make-point 85 186) (om-make-point 123 59) nil nil nil 1))) (when (fboundp (quote set-active)) (set-active box nil)) box) (let ((box (om-load-boxout "output" 0 (om-make-point 112 384) (quote ((om-load-inputfun (quote input-funbox) "" "out" nil))) nil nil))) (when (fboundp (quote set-active)) (set-active box nil)) box))) (quote ((3 0 0 2 nil 0) (1 0 2 1 nil 0) (2 0 3 0 nil 0) (0 0 4 0 nil 0))) 6.090014 nil "" (om-make-point 188 283) (om-make-point 504 495)) (quote nil) (om-make-point 416 86) nil (list nil) "l" "bpf"))) (when (fboundp (quote set-active)) (set-active box nil)) box) (let ((box (om-load-boxcall (quote bastype) "aux 2" (quote t) (quote nil) (om-make-point 100 34) (om-make-point 34 30) 15 "15" nil))) (when (fboundp (quote set-active)) (set-active box nil)) box) (let ((box (om-load-editor-box1 "GA-ENGINE" (quote om-darwin::ga-engine) (quote ((om-load-inputfun (quote input-funbox) "object" "self" nil) (om-load-inputfun (quote input-funbox) "" "model" nil) (om-load-inputfun (quote input-funbox) "" "fitness-function" nil))) (om-make-point 355 302) (om-make-point 186 181) (let ((om-darwin::ga (if (find-class (quote om-darwin::ga-engine) nil) (make-instance (quote om-darwin::ga-engine) :model (let ((om-darwin::spec (if (find-class (quote om-darwin::om-specimen) nil) (make-instance (quote om-darwin::om-specimen) :operons nil :pheno nil :raw-genotype (list 152 185 42 159 58 45 240 75 147 102) :decoder nil :from-file t)))) (setf (om-darwin::raw-genotype om-darwin::spec) (list 152 185 42 159 58 45 240 75 147 102)) (om-darwin::update om-darwin::spec) om-darwin::spec) :fitness-function nil :from-file t)))) (setf (om-darwin::population om-darwin::ga) (list (list 7 (let ((om-darwin::spec (if (find-class (quote om-darwin::om-specimen) nil) (make-instance (quote om-darwin::om-specimen) :operons nil :pheno nil :raw-genotype (list 1 202 103 0 0 102 1 202 1 102) :decoder nil :from-file t)))) (setf (om-darwin::raw-genotype om-darwin::spec) (list 1 202 103 0 0 102 1 202 1 102)) (om-darwin::update om-darwin::spec) om-darwin::spec) 0) (list 8 (let ((om-darwin::spec (if (find-class (quote om-darwin::om-specimen) nil) (make-instance (quote om-darwin::om-specimen) :operons nil :pheno nil :raw-genotype (list 1 202 202 0 1 103 1 102 1 102) :decoder nil :from-file t)))) (setf (om-darwin::raw-genotype om-darwin::spec) (list 1 202 202 0 1 103 1 102 1 102)) (om-darwin::update om-darwin::spec) om-darwin::spec) 0) (list 9 (let ((om-darwin::spec (if (find-class (quote om-darwin::om-specimen) nil) (make-instance (quote om-darwin::om-specimen) :operons nil :pheno nil :raw-genotype (list 1 202 103 0 0 202 1 102 3 102) :decoder nil :from-file t)))) (setf (om-darwin::raw-genotype om-darwin::spec) (list 1 202 103 0 0 202 1 102 3 102)) (om-darwin::update om-darwin::spec) om-darwin::spec) 0) (list 10 (let ((om-darwin::spec (if (find-class (quote om-darwin::om-specimen) nil) (make-instance (quote om-darwin::om-specimen) :operons nil :pheno nil :raw-genotype (list 1 202 202 0 1 103 1 102 3 102) :decoder nil :from-file t)))) (setf (om-darwin::raw-genotype om-darwin::spec) (list 1 202 202 0 1 103 1 102 3 102)) (om-darwin::update om-darwin::spec) om-darwin::spec) 0) (list 11 (let ((om-darwin::spec (if (find-class (quote om-darwin::om-specimen) nil) (make-instance (quote om-darwin::om-specimen) :operons nil :pheno nil :raw-genotype (list 1 202 103 0 1 205 0 205 0 102) :decoder nil :from-file t)))) (setf (om-darwin::raw-genotype om-darwin::spec) (list 1 202 103 0 1 205 0 205 0 102)) (om-darwin::update om-darwin::spec) om-darwin::spec) 0) (list 12 (let ((om-darwin::spec (if (find-class (quote om-darwin::om-specimen) nil) (make-instance (quote om-darwin::om-specimen) :operons nil :pheno nil :raw-genotype (list 1 202 103 0 0 202 1 105 3 102) :decoder nil :from-file t)))) (setf (om-darwin::raw-genotype om-darwin::spec) (list 1 202 103 0 0 202 1 105 3 102)) (om-darwin::update om-darwin::spec) om-darwin::spec) 0) (list 13 (let ((om-darwin::spec (if (find-class (quote om-darwin::om-specimen) nil) (make-instance (quote om-darwin::om-specimen) :operons nil :pheno nil :raw-genotype (list 1 202 103 0 1 202 1 105 3 102) :decoder nil :from-file t)))) (setf (om-darwin::raw-genotype om-darwin::spec) (list 1 202 103 0 1 202 1 105 3 102)) (om-darwin::update om-darwin::spec) om-darwin::spec) 0) (list 14 (let ((om-darwin::spec (if (find-class (quote om-darwin::om-specimen) nil) (make-instance (quote om-darwin::om-specimen) :operons nil :pheno nil :raw-genotype (list 1 202 103 0 1 205 0 205 3 102) :decoder nil :from-file t)))) (setf (om-darwin::raw-genotype om-darwin::spec) (list 1 202 103 0 1 205 0 205 3 102)) (om-darwin::update om-darwin::spec) om-darwin::spec) 0) (list 15 (let ((om-darwin::spec (if (find-class (quote om-darwin::om-specimen) nil) (make-instance (quote om-darwin::om-specimen) :operons nil :pheno nil :raw-genotype (list 1 202 103 0 1 205 1 205 3 102) :decoder nil :from-file t)))) (setf (om-darwin::raw-genotype om-darwin::spec) (list 1 202 103 0 1 205 1 205 3 102)) (om-darwin::update om-darwin::spec) om-darwin::spec) 0) (list 16 (let ((om-darwin::spec (if (find-class (quote om-darwin::om-specimen) nil) (make-instance (quote om-darwin::om-specimen) :operons nil :pheno nil :raw-genotype (list 1 202 103 0 1 205 1 105 3 102) :decoder nil :from-file t)))) (setf (om-darwin::raw-genotype om-darwin::spec) (list 1 202 103 0 1 205 1 105 3 102)) (om-darwin::update om-darwin::spec) om-darwin::spec) 0))) (setf (om-darwin::generation om-darwin::ga) 43) (setf (om-darwin::result om-darwin::ga) (let ((newobj (when (find-class (quote bpf) nil) (let ((newbpf (simple-bpf-from-list (quote (0 100 200 300 400 500 600 700 800 900)) (quote (1 0 2 0 0 1 1 0 1 1)) (quote bpf) 0))) (setf (bpfcolor newbpf) (om-make-color 0 0 0)) (set-name newbpf nil) newbpf)))) (when newobj) newobj)) om-darwin::ga) nil nil (pairlis (quote (scale show-stems cursor-mode obj-mode score-mode winpos winsize mode grillestep notechancolor? zoom player inport outport deltapict cmnpref staff fontsize approx)) (list nil (quote t) (quote :normal) 1 0 (om-make-point 503 105) (om-make-point 370 280) 0 1000 nil 1 (quote :midi-player) nil nil (om-make-point 0 0) (let ((newobj (make-instance (quote edition-values)))) (setf (paper-size newobj) (om-make-point 600 800)) (setf (top-margin newobj) 2) (setf (left-margin newobj) 1) (setf (right-margin newobj) 1) (setf (bottom-margin newobj) 1) (setf (orientation newobj) nil) (setf (scale newobj) nil) (setf (system-space newobj) (quote (1))) (setf (system-color newobj) (quote nil)) (setf (line-space newobj) 1) (setf (title newobj) nil) (setf (show-title? newobj) nil) (setf (show-page? newobj) nil) (setf (sheet-id newobj) nil) (setf (page-mode newobj) nil) newobj) (quote g) 24 2)) t nil nil nil))) (when (fboundp (quote set-active)) (set-active box nil)) box) (let ((box (om-load-boxcall (quote genfun) "DEFINE-SPECIES" (quote define-species) (quote ((om-load-inputfun (quote input-funbox) "" "FUN" nil))) (om-make-point 369 191) nil nil nil nil 1))) (when (fboundp (quote set-active)) (set-active box nil)) box) (let ((box (om-load-boxcall (quote abstraction) "ten-bits" (om-load-patch-abs1 "ten-bits" (quote ((let ((box (om-load-boxcall (quote genfun) "OM-GENE" (quote om-gene) (quote ((om-load-inputfun (quote input-funbox) "minimum value" "MIN" 0) (om-load-inputfun (quote input-funbox) "maximum value" "MAX" 1))) (om-make-point 43 66) nil nil nil nil 1))) (when (fboundp (quote set-active)) (set-active box nil)) box) (let ((box (om-load-boxin "input" 0 (om-make-point 176 30) "" nil 10 nil))) (when (fboundp (quote set-active)) (set-active box nil)) box) (let ((box (om-load-boxcall (quote genfun) "REPEAT-N" (quote repeat-n) (quote ((om-load-inputfun (quote input-funbox) "something" "SELF" 10) (om-load-inputfun (quote input-funbox) "times" "N" 10))) (om-make-point 98 173) (om-make-point 123 59) nil nil nil 1))) (when (fboundp (quote set-active)) (set-active box nil)) box) (let ((box (om-load-boxout "output" 0 (om-make-point 164 284) (quote ((om-load-inputfun (quote input-funbox) "" "out" nil))) nil nil))) (when (fboundp (quote set-active)) (set-active box nil)) box))) (quote ((0 0 2 0 nil 0) (1 0 2 1 nil 0) (2 0 3 0 nil 0))) 6.090014 nil "" (om-make-point 341 98) (om-make-point 375 389)) (quote ((om-load-inputfun (quote input-funbox) "" "input" nil))) (om-make-point 109 103) nil (list nil) "l" "ten-bits"))) (when (fboundp (quote set-active)) (set-active box nil)) box))) (quote ((12 0 3 0 nil 0) (3 0 4 1 nil 0) (2 0 4 2 nil 0) (7 0 5 0 nil 0) (5 0 6 1 nil 0) (0 0 6 2 nil 0) (11 0 10 1 nil 0) (1 0 10 2 nil 0) (8 0 11 0 nil 0) (9 0 12 0 nil 0))) nil 6.090014))
