; OM File Header - Saved 2015/06/22 11:24:33
; (6.1 :patc (om-make-point 10 10) (om-make-point 931 267) (om-make-point 854 507) "" 183 0 "2015/06/19 12:31:07" "2015/06/22 11:24:33")
; End File Header
; External resources 
; (list (list (quote :abstraction) "#P\"../simple evaluation.omp\"" "#P\"../single-contour.omp\""))
(in-package :om)(load-lib-for (quote ("om-darwin")))(setf *om-current-persistent* (om-load-patch1 "single-contour demo" (quote ((let ((box (om-load-boxcall (quote abstraction) "single-contour (genetic)" (om-load-patch-abs1 "single-contour (genetic)" (quote ((let ((box (om-load-boxcall (quote bastype) "aux 6" (quote t) (quote nil) (om-make-point 429 133) (om-make-point 156 30) (list (list 5 2 4 0) (list 5 3 4 1 2 0)) "((5 2 4 0) (5 3 4 1 2 0))" nil))) (when (fboundp (quote set-active)) (set-active box nil)) box) (let ((box (om-load-boxcall (quote genfun) "OM-GENE" (quote om-gene) (quote ((om-load-inputfun (quote input-funbox) "minimum value" "MIN" 0) (om-load-inputfun (quote input-funbox) "maximum value" "MAX" 1))) (om-make-point 79 189) nil nil nil nil 1))) (when (fboundp (quote set-active)) (set-active box nil)) box) (let ((box (om-load-boxcall (quote genfun) "NTH-GENE" (quote nth-gene) (quote ((om-load-inputfun (quote input-funbox) "" "LIS" nil))) (om-make-point 300 241) nil nil nil nil 1))) (when (fboundp (quote set-active)) (set-active box nil)) box) (let ((box (om-load-boxcall (quote bastype) "aux" (quote t) (quote nil) (om-make-point 168 250) (om-make-point 41 30) 100 "100" nil))) (when (fboundp (quote set-active)) (set-active box nil)) box) (let ((box (om-load-boxcall (quote genfun) "OM*" (quote om*) (quote ((om-load-inputfun (quote input-funbox) "number or list" "ARG1" 0) (om-load-inputfun (quote input-funbox) "number or list" "ARG2" 100))) (om-make-point 84 324) (om-make-point 43 35) nil nil nil 1))) (when (fboundp (quote set-active)) (set-active box nil)) box) (let ((box (om-load-boxcall (quote abstraction) "cardinality" (om-load-patch-abs1 "cardinality" (quote ((let ((box (om-load-boxout "output" 0 (om-make-point 50 303) (quote ((om-load-inputfun (quote input-funbox) "" "out" nil))) nil nil))) (when (fboundp (quote set-active)) (set-active box nil)) box) (let ((box (om-load-boxin "input" 0 (om-make-point 358 50) "" nil nil nil))) (when (fboundp (quote set-active)) (set-active box nil)) box) (let ((box (om-load-boxcall (quote genfun) "FLAT" (quote flat) (quote ((om-load-inputfun (quote input-funbox) "a list" "LST" nil))) (om-make-point 427 139) nil nil nil nil 1))) (when (fboundp (quote set-active)) (set-active box nil)) box) (let ((box (om-load-boxcall (quote bastype) "aux 5" (quote t) (quote nil) (om-make-point 349 190) (om-make-point 45 30) (quote max) "max" nil))) (when (fboundp (quote set-active)) (set-active box nil)) box) (let ((box (om-load-boxcall (quote lispfun) "APPLY" (quote apply) (quote ((om-load-inputfun (quote input-funbox) "FUNCTION" "FUNCTION" (quote max)) (om-load-inputfun (quote input-funbox) "ARG" "ARG" nil))) (om-make-point 369 249) nil nil "&" nil 1))) (when (fboundp (quote set-active)) (set-active box nil)) box) (let ((box (om-load-boxcall (quote lispfun) "1+" (quote 1+) (quote ((om-load-inputfun (quote input-funbox) "X" "X" nil))) (om-make-point 98 240) nil nil nil nil 1))) (when (fboundp (quote set-active)) (set-active box nil)) box))) (quote ((5 0 0 0 nil 0) (1 0 2 0 nil 0) (3 0 4 0 nil 0) (2 0 4 1 nil 0) (4 0 5 0 nil 0))) 6.1 nil "" (om-make-point 200 200) (om-make-point 500 400)) (quote ((om-load-inputfun (quote input-funbox) "" "input" nil))) (om-make-point 466 261) nil (list 6) nil "cardinality"))) (when (fboundp (quote set-active)) (set-active box nil)) box) (let ((box (om-load-boxout "output" 0 (om-make-point 325 685) (quote ((om-load-inputfun (quote input-funbox) "" "out" nil))) nil nil))) (when (fboundp (quote set-active)) (set-active box nil)) box) (let ((box (om-load-boxcomment "comment" (om-make-point 95 27) (quote "contours") "" (om-make-point 408 36) nil (om-make-color 0 0 0) (om-make-font "Verdana" 12 :family "Verdana" :style (quote (:plain)) :mode (quote nil))))) (when (fboundp (quote set-active)) (set-active box nil)) box) (let ((box (om-load-boxcomment "comment" (om-make-point 95 27) (quote "contour") "" (om-make-point 246 163) nil (om-make-color 0 0 0) (om-make-font "Verdana" 12 :family "Verdana" :style (quote (:plain)) :mode (quote nil))))) (when (fboundp (quote set-active)) (set-active box nil)) box) (let ((box (om-load-boxin "range" 0 (om-make-point 250 9) "" "range" (list 48 72) nil))) (when (fboundp (quote set-active)) (set-active box nil)) box) (let ((box (let ((box (om-load-boxcall (quote genfun) "LIST-ELEMENTS" (quote list-elements) (quote ((om-load-inputfun (quote input-funbox) "a list" "LIST" nil))) (om-make-point 94 91) nil nil nil nil 2))) (setf (numouts box) 2) box))) (when (fboundp (quote set-active)) (set-active box nil)) box) (let ((box (om-load-boxcall (quote genfun) "SORT." (quote sort.) (quote ((om-load-inputfun (quote input-funbox) "the list" "LST" nil))) (om-make-point 260 435) nil nil nil nil 1))) (when (fboundp (quote set-active)) (set-active box nil)) box) (let ((box (om-load-boxcall (quote lispfun) "NTH" (quote nth) (quote ((om-load-inputfun (quote input-funbox) "ORIG-N" "ORIG-N" nil) (om-load-inputfun (quote input-funbox) "ORIG-LIST" "ORIG-LIST" nil))) (om-make-point 241 535) nil nil "l" nil 1))) (when (fboundp (quote set-active)) (set-active box nil)) box) (let ((box (om-load-boxcall (quote lispfun) "MAPCAR" (quote mapcar) (quote ((om-load-inputfun (quote input-funbox) "FUNCTION" "FUNCTION" nil) (om-load-inputfun (quote input-funbox) "LIST" "LIST" nil))) (om-make-point 315 620) (om-make-point 85 43) nil nil nil 1))) (when (fboundp (quote set-active)) (set-active box nil)) box) (let ((box (om-load-boxcall (quote genfun) "REPEAT-N" (quote repeat-n) (quote ((om-load-inputfun (quote input-funbox) "something" "SELF" nil) (om-load-inputfun (quote input-funbox) "times" "N" 0))) (om-make-point 147 384) nil nil "&" nil 1))) (when (fboundp (quote set-active)) (set-active box nil)) box) (let ((box (om-load-boxcall (quote bastype) "aux 6" (quote t) (quote nil) (om-make-point 361 64) (om-make-point 275 30) (list (list 7 2 0 5) (list 7 2 0 3 1 5) (list 7 6 5 4 3 2 1) (list 7 4)) "((7 2 0 5) (7 2 0 3 1 5) (7 6 5 4 3 2 1) (7 4))" nil))) (when (fboundp (quote set-active)) (set-active box nil)) box) (let ((box (om-load-boxcomment "comment" (om-make-point 57 29) (quote "pitches") "" (om-make-point 23 190) nil (om-make-color 0 0 0) (om-make-font "Verdana" 12 :family "Verdana" :style (quote (:plain)) :mode (quote nil))))) (when (fboundp (quote set-active)) (set-active box nil)) box))) (quote ((10 0 1 0 nil 0) (10 1 1 1 nil 0) (0 0 2 0 nil 0) (1 0 4 0 nil 0) (3 0 4 1 nil 0) (0 0 5 0 nil 0) (13 0 6 0 nil 0) (9 0 10 0 nil 0) (14 0 11 0 nil 0) (11 0 12 1 nil 0) (12 0 13 0 nil 0) (2 0 13 1 nil 0) (4 0 14 0 nil 0) (5 0 14 1 nil 0))) 6.1 nil "" (om-make-point 200 200) (om-make-point 797 774)) (quote ((om-load-inputfun (quote input-funbox) "" "range" nil))) (om-make-point 49 93) nil (list nil) "l" "single-contour (genetic)"))) (when (fboundp (quote set-active)) (set-active box nil)) box) (let ((box (om-load-boxcall (quote patch-box) "simple evaluation" (quote ("elements" "00. presentation patches" "7a. pizz contours" "simple evaluation")) (quote ((om-load-inputfun (quote input-funbox) "" "lmidic" nil))) (om-make-point 569 83) (om-make-point 110 67) (list nil) "l" "simple evaluation" 1))) (when (fboundp (quote set-active)) (set-active box nil)) box) (let ((box (om-load-boxcall (quote patch-box) "single-contour 2" (quote ("elements" "00. presentation patches" "7a. pizz contours" "single-contour")) (quote ((om-load-inputfun (quote input-funbox) "" "range" nil))) (om-make-point 403 84) nil (list (list 7100 6400 6700 5300 5500 5000)) nil "single-contour" 1))) (when (fboundp (quote set-active)) (set-active box nil)) box) (let ((box (om-load-editor-box1 "CHORD-SEQ" (quote chord-seq) (quote ((om-load-inputfun (quote input-funbox) "object" "self" nil) (om-load-inputfun (quote input-funbox) "pitches (mc): list or list of lists" "lmidic" (list 6000)) (om-load-inputfun (quote input-funbox) "onsets (ms): list" "lonset" (list 0 1000)) (om-load-inputfun (quote input-funbox) "durations (ms): list or list of lists" "ldur" (list 1000)) (om-load-inputfun (quote input-funbox) "velocities (0-127): list or list of lists" "lvel" (list 100)) (om-load-inputfun (quote input-funbox) "offsets (ms): list or list of lists" "loffset" (list 0)) (om-load-inputfun (quote input-funbox) "MIDI channels (1-16): list or list of lists" "lchan" (list 1)) (om-load-inputfun (quote input-funbox) "relative chords duration (0-100)" "legato" 0))) (om-make-point 289 247) (om-make-point 377 94) (let ((newobj (when (find-class (quote chord-seq) nil) (make-instance (quote chord-seq) :lmidic (quote ((6300) (5800) (5900) (5100) (5400) (4800))) :lonset (quote (0 500 1000 1500 2000 2500 3000)) :ldur (quote ((500) (500) (500) (500) (500) (500))) :lvel (quote ((100) (100) (100) (100) (100) (100))) :loffset (quote ((0) (0) (0) (0) (0) (0))) :lchan (quote ((1) (1) (1) (1) (1) (1))) :legato 0)))) (load-port-info newobj (quote ((0) (0) (0) (0) (0) (0)))) (init-mus-color newobj (quote nil)) (set-extra-pairs newobj (quote nil)) (set-patch-pairs newobj (quote nil)) (set-name newobj nil) (set-tonalite newobj nil) newobj) nil nil (pairlis (quote (scale show-stems cursor-mode obj-mode score-mode winpos winsize mode grillestep notechancolor? zoom player inport outport deltapict cmnpref staff fontsize approx)) (list nil (quote t) (quote :normal) 1 0 (om-make-point 400 20) (om-make-point 370 280) 0 1000 nil 1 (quote :midi-player) nil nil (om-make-point 0 -13) (let ((newobj (make-instance (quote edition-values)))) (setf (paper-size newobj) (om-make-point 600 800)) (setf (top-margin newobj) 2) (setf (left-margin newobj) 1) (setf (right-margin newobj) 1) (setf (bottom-margin newobj) 1) (setf (orientation newobj) nil) (setf (scale newobj) nil) (setf (system-space newobj) (quote (1))) (setf (system-color newobj) (quote nil)) (setf (line-space newobj) 1) (setf (title newobj) nil) (setf (show-title? newobj) nil) (setf (show-page? newobj) nil) (setf (sheet-id newobj) nil) (setf (page-mode newobj) nil) newobj) (quote g) 24 2)) t nil nil nil))) (when (fboundp (quote set-active)) (set-active box nil)) box) (let ((box (om-load-boxcall (quote bastype) "aux" (quote t) (quote nil) (om-make-point 260 16) (om-make-point 62 30) (list 48 72) "(48 72)" nil))) (when (fboundp (quote set-active)) (set-active box nil)) box) (let ((box (om-load-boxout "output" 0 (om-make-point 115 376) (quote ((om-load-inputfun (quote input-funbox) "" "out" nil))) nil nil))) (when (fboundp (quote set-active)) (set-active box nil)) box) (let ((box (om-load-boxcall (quote genfun) "DEFINE-SPECIES" (quote define-species) (quote ((om-load-inputfun (quote input-funbox) "" "FUN" nil))) (om-make-point 51 219) nil nil nil nil 1))) (when (fboundp (quote set-active)) (set-active box nil)) box))) (quote ((4 0 0 0 nil 0) (4 0 2 0 nil 0) (6 0 3 0 nil 0) (6 0 5 0 nil 0) (0 0 6 0 nil 0))) nil 6.1))
