; OM File Header - Saved 2015/02/20 15:26:38
; (6.090014 :patc (om-make-point 172 10) (om-make-point 95 56) (om-make-point 773 662) "" 183 0 "2015/02/16 14:02:07" "2015/02/20 15:26:38")
; End File Header
(in-package :om)(load-lib-for (quote ("om-darwin")))(setf *om-current-persistent* (om-load-patch1 "defspecies test" (quote ((let ((box (om-load-boxcall (quote lispfun) "PROCESS" (quote om-darwin::process) (quote ((om-load-inputfun (quote input-funbox) "GA-ENGINE-BOX" "GA-ENGINE-BOX" nil))) (om-make-point 149 502) nil nil nil nil 1))) (when (fboundp (quote set-active)) (set-active box nil)) box) (let ((box (om-load-boxcall (quote lispfun) "PROCESS" (quote om-darwin::process) (quote ((om-load-inputfun (quote input-funbox) "GA-ENGINE-BOX" "GA-ENGINE-BOX" nil))) (om-make-point 233 580) nil nil nil nil 1))) (when (fboundp (quote set-active)) (set-active box nil)) box) (let ((box (om-load-boxcall (quote lispfun) "INITIALIZE-ENGINE" (quote om-darwin::initialize-engine) (quote ((om-load-inputfun (quote input-funbox) "SELF" "SELF" nil))) (om-make-point 36 517) nil nil nil nil 1))) (when (fboundp (quote set-active)) (set-active box nil)) box) (let ((box (om-load-editor-box1 "GA-ENGINE" (quote om-darwin::ga-engine) (quote ((om-load-inputfun (quote input-funbox) "object" "self" nil) (om-load-inputfun (quote input-funbox) "" "model" nil) (om-load-inputfun (quote input-funbox) "" "fitness-function" nil) (om-load-inputfun (quote input-funbox) "" "max-generations" 100))) (om-make-point 285 298) (om-make-point 207 112) (if (find-class (quote om-darwin::ga-engine) nil) (make-instance (quote om-darwin::ga-engine) :model (if (find-class (quote om-darwin::melody) nil) (make-instance (quote om-darwin::melody) :num-operons 32 :range (list 60 84) :from-file t)) :fitness-function nil :max-generations 100 :from-file t)) "x" nil (pairlis (quote (scale show-stems cursor-mode obj-mode score-mode winpos winsize mode grillestep notechancolor? zoom player inport outport deltapict cmnpref staff fontsize approx)) (list nil (quote t) (quote :normal) 1 0 (om-make-point 400 20) (om-make-point 370 280) 0 1000 nil 1 (quote :midi-player) nil nil (om-make-point 0 0) (let ((newobj (make-instance (quote edition-values)))) (setf (paper-size newobj) (om-make-point 600 800)) (setf (top-margin newobj) 2) (setf (left-margin newobj) 1) (setf (right-margin newobj) 1) (setf (bottom-margin newobj) 1) (setf (orientation newobj) nil) (setf (scale newobj) nil) (setf (system-space newobj) (quote (1))) (setf (system-color newobj) (quote nil)) (setf (line-space newobj) 1) (setf (title newobj) nil) (setf (show-title? newobj) nil) (setf (show-page? newobj) nil) (setf (sheet-id newobj) nil) (setf (page-mode newobj) nil) newobj) (quote g) 24 2)) t nil nil nil))) (when (fboundp (quote set-active)) (set-active box nil)) box) (let ((box (om-load-boxcall (quote lispfun) "BOX" (quote om-darwin::box) (quote ((om-load-inputfun (quote input-funbox) "GA-ENGINE" "GA-ENGINE" nil))) (om-make-point 253 493) nil nil nil nil 1))) (when (fboundp (quote set-active)) (set-active box nil)) box) (let ((box (om-load-editor-box1 "POLY" (quote poly) (quote ((om-load-inputfun (quote input-funbox) "object" "self" nil) (om-load-inputfun (quote input-funbox) "list of VOICE objects" "voices" (list (let ((newobj (when (find-class (quote voice) nil) (make-instance (quote voice) :tree (quote (1 (((4 4) (1 1 1 1))))) :chords (load-obj-list-from-save (quote ((let ((thechord (make-instance (quote chord) :lmidic (quote (6000)) :ldur (quote (1000)) :lvel (quote (100)) :loffset (quote (0)) :lchan (quote (1))))) (load-port-info thechord (quote (0))) (init-mus-color thechord (quote nil)) (set-extra-pairs thechord (quote nil)) (set-tonalite thechord nil) thechord) (let ((thechord (make-instance (quote chord) :lmidic (quote (6000)) :ldur (quote (1000)) :lvel (quote (100)) :loffset (quote (0)) :lchan (quote (1))))) (load-port-info thechord (quote (0))) (init-mus-color thechord (quote nil)) (set-extra-pairs thechord (quote nil)) (set-tonalite thechord nil) thechord) (let ((thechord (make-instance (quote chord) :lmidic (quote (6000)) :ldur (quote (1000)) :lvel (quote (100)) :loffset (quote (0)) :lchan (quote (1))))) (load-port-info thechord (quote (0))) (init-mus-color thechord (quote nil)) (set-extra-pairs thechord (quote nil)) (set-tonalite thechord nil) thechord) (let ((thechord (make-instance (quote chord) :lmidic (quote (6000)) :ldur (quote (1000)) :lvel (quote (100)) :loffset (quote (0)) :lchan (quote (1))))) (load-port-info thechord (quote (0))) (init-mus-color thechord (quote nil)) (set-extra-pairs thechord (quote nil)) (set-tonalite thechord nil) thechord)))) :tempo (quote ((1/4 60) nil)) :legato 100 :ties (quote (nil nil nil nil)))))) (load-port-info newobj (quote nil)) (init-mus-color newobj (quote nil)) (set-extra-pairs newobj (quote nil)) (set-patch-pairs newobj (quote nil)) (set-name newobj nil) (set-tonalite newobj nil) newobj))))) (om-make-point 598 186) (om-make-point 130 65) (if (find-class (quote poly) nil) (let ((newobj (make-instance (quote poly) :voices (list (let ((newobj (when (find-class (quote voice) nil) (make-instance (quote voice) :tree (quote (1 (((4 4) (1 1 1 1))))) :chords (load-obj-list-from-save (quote ((let ((thechord (make-instance (quote chord) :lmidic (quote (6000)) :ldur (quote (1000)) :lvel (quote (100)) :loffset (quote (0)) :lchan (quote (1))))) (load-port-info thechord (quote (0))) (init-mus-color thechord (quote nil)) (set-extra-pairs thechord (quote nil)) (set-tonalite thechord nil) thechord) (let ((thechord (make-instance (quote chord) :lmidic (quote (6000)) :ldur (quote (1000)) :lvel (quote (100)) :loffset (quote (0)) :lchan (quote (1))))) (load-port-info thechord (quote (0))) (init-mus-color thechord (quote nil)) (set-extra-pairs thechord (quote nil)) (set-tonalite thechord nil) thechord) (let ((thechord (make-instance (quote chord) :lmidic (quote (6000)) :ldur (quote (1000)) :lvel (quote (100)) :loffset (quote (0)) :lchan (quote (1))))) (load-port-info thechord (quote (0))) (init-mus-color thechord (quote nil)) (set-extra-pairs thechord (quote nil)) (set-tonalite thechord nil) thechord) (let ((thechord (make-instance (quote chord) :lmidic (quote (6000)) :ldur (quote (1000)) :lvel (quote (100)) :loffset (quote (0)) :lchan (quote (1))))) (load-port-info thechord (quote (0))) (init-mus-color thechord (quote nil)) (set-extra-pairs thechord (quote nil)) (set-tonalite thechord nil) thechord)))) :tempo (quote ((1/4 60) nil)) :legato 100 :ties (quote (nil nil nil nil)))))) (load-port-info newobj (quote nil)) (init-mus-color newobj (quote nil)) (set-extra-pairs newobj (quote nil)) (set-patch-pairs newobj (quote nil)) (set-name newobj nil) (set-tonalite newobj nil) newobj)) :from-file t))) (load-port-info newobj (quote (nil))) (init-mus-color newobj (quote nil)) (set-extra-pairs newobj (quote nil)) (set-patch-pairs newobj (quote nil)) (set-name newobj nil) (set-tonalite newobj nil) newobj)) nil nil (pairlis (quote (approx fontsize staff cmnpref deltapict outport inport player zoom notechancolor? grillestep mode winsize winpos score-mode obj-mode cursor-mode show-stems scale)) (list 2 24 (quote g) (let ((newobj (make-instance (quote edition-values)))) (setf (paper-size newobj) (om-make-point 600 800)) (setf (top-margin newobj) 2) (setf (left-margin newobj) 1) (setf (right-margin newobj) 1) (setf (bottom-margin newobj) 1) (setf (orientation newobj) nil) (setf (scale newobj) nil) (setf (system-space newobj) (quote (1))) (setf (system-color newobj) (quote nil)) (setf (line-space newobj) 1) (setf (title newobj) nil) (setf (show-title? newobj) nil) (setf (show-page? newobj) nil) (setf (sheet-id newobj) nil) (setf (page-mode newobj) nil) newobj) (om-make-point 0 0) nil nil (quote :midi-player) 1 nil 1000 0 (om-make-point 370 280) (om-make-point 400 20) 0 1 (quote :normal) (quote t) nil)) nil nil nil nil))) (when (fboundp (quote set-active)) (set-active box nil)) box) (let ((box (om-load-boxcall (quote lispfun) "REINIT" (quote om-darwin::reinit) (quote ((om-load-inputfun (quote input-funbox) "SELF" "SELF" nil))) (om-make-point 324 498) nil nil nil nil 1))) (when (fboundp (quote set-active)) (set-active box nil)) box) (let ((box (om-load-boxcall (quote lispfun) "SET-FITNESS-FUNCTION" (quote om-darwin::set-fitness-function) (quote ((om-load-inputfun (quote input-funbox) "SELF" "SELF" nil) (om-load-inputfun (quote input-funbox) "FITNESS-FUNCTION" "FITNESS-FUNCTION" nil))) (om-make-point 42 404) nil nil nil nil 1))) (when (fboundp (quote set-active)) (set-active box t)) box) (let ((box (om-load-boxcall (quote bastype) "aux 3" (quote t) (quote nil) (om-make-point 259 17) (om-make-point 62 30) (list 60 66) "(60 66)" nil))) (when (fboundp (quote set-active)) (set-active box t)) box) (let ((box (om-load-boxcall (quote lispfun) "STOP" (quote om-darwin::stop) (quote ((om-load-inputfun (quote input-funbox) "SELF" "SELF" nil))) (om-make-point 482 474) nil nil nil nil 1))) (when (fboundp (quote set-active)) (set-active box nil)) box) (let ((box (om-load-boxcall (quote lispfun) "START" (quote om-darwin::start) (quote ((om-load-inputfun (quote input-funbox) "SELF" "SELF" nil))) (om-make-point 386 474) nil nil nil nil 1))) (when (fboundp (quote set-active)) (set-active box nil)) box) (let ((box (om-load-boxcall (quote abstraction) "impossible" (om-load-lisp-abspatch "impossible" 6.090014 ";;; Edit a valid LAMBDA EXPRESSION for \"odd midi numbers\"$;;; e.g. (lambda (arg1 arg2 ...) ( ... ))$$(lambda (spec)$  1.0)") (quote ((om-load-inputfun (quote input-funbox) "" "SPEC" nil))) (om-make-point 509 102) nil (list nil) "l" "impossible"))) (when (fboundp (quote set-active)) (set-active box nil)) box) (let ((box (om-load-boxcall (quote bastype) "aux" (quote t) (quote nil) (om-make-point 97 44) (om-make-point 34 30) 32 "32" nil))) (when (fboundp (quote set-active)) (set-active box nil)) box) (let ((box (om-load-boxcall (quote abstraction) "melodic int and pcs" (om-load-lisp-abspatch "melodic int and pcs" 6.090014 ";;; Edit a valid LAMBDA EXPRESSION for \"odd midi numbers\"$;;; e.g. (lambda (arg1 arg2 ...) ( ... ))$$(lambda (spec range)$  (let ((pitches (mapcar 'dwn::pitch (dwn::operons spec))))$    (+ (loop for pitch in pitches$             sum (+ (if (member (mod pitch 12) '(0 2 4 5 7 9 11)) 0 1)$                    (dwn::within-M pitch range)))$$       (loop for sub on pitches$             while (cdr sub)$             for mel = (- (car sub) (cadr sub))$             $             sum (dwn::within-M (abs mel) '(4 9))))))") (quote ((om-load-inputfun (quote input-funbox) "" "SPEC" nil) (om-load-inputfun (quote input-funbox) "" "RANGE" nil))) (om-make-point 259 101) nil (list nil) "l" "melodic int and pcs"))) (when (fboundp (quote set-active)) (set-active box t)) box) (let ((box (om-load-boxcall (quote genfun) "MAKE-MELODY" (quote make-melody) (quote ((om-load-inputfun (quote input-funbox) "" "NUM-OPERONS" 8))) (om-make-point 47 174) nil nil nil nil 1))) (when (fboundp (quote set-active)) (set-active box nil)) box))) (quote ((3 0 0 0 nil 0) (4 0 1 0 nil 0) (14 0 3 1 nil 0) (13 0 3 2 nil 0) (3 0 4 0 nil 0) (3 0 6 0 nil 0) (13 0 7 1 nil 0) (3 0 9 0 nil 0) (3 0 10 0 nil 0) (8 0 13 1 nil 0) (12 0 14 0 nil 0))) nil 6.090014))