; OM File Header - Saved 2015/02/26 18:49:00
; (6.090014 :patc (om-make-point 118 60) (om-make-point 97 53) (om-make-point 805 604) "" 183 0 "2015/02/24 18:34:30" "2015/02/26 18:49:00")
; End File Header
; External resources 
; (list (list (quote :abstraction) "#P\"range and rising.oml\""))
(in-package :om)(load-lib-for (quote ("om-darwin")))(setf *om-current-persistent* (om-load-patch1 "more ga-engine testing" (quote ((let ((box (om-load-editor-box1 "GA-ENGINE" (quote om-darwin::ga-engine) (quote ((om-load-inputfun (quote input-funbox) "object" "self" nil) (om-load-inputfun (quote input-funbox) "" "model" nil) (om-load-inputfun (quote input-funbox) "" "fitness-function" nil))) (om-make-point 166 270) (om-make-point 210 80) (let ((om-darwin::ga (if (find-class (quote om-darwin::ga-engine) nil) (make-instance (quote om-darwin::ga-engine) :model nil :fitness-function nil :from-file t)))) (setf (om-darwin::population om-darwin::ga) nil) (setf (om-darwin::generation om-darwin::ga) 0) (setf (om-darwin::result om-darwin::ga) (if (find-class (quote poly) nil) (let ((newobj (make-instance (quote poly) :voices (list (let ((newobj (when (find-class (quote voice) nil) (make-instance (quote voice) :tree (quote (1 (((4 4) (1 1 1 1))))) :chords (load-obj-list-from-save (quote ((let ((thechord (make-instance (quote chord) :lmidic (quote (6000)) :ldur (quote (1000)) :lvel (quote (100)) :loffset (quote (0)) :lchan (quote (1))))) (load-port-info thechord (quote (0))) (init-mus-color thechord (quote nil)) (set-extra-pairs thechord (quote nil)) (set-tonalite thechord nil) thechord) (let ((thechord (make-instance (quote chord) :lmidic (quote (6000)) :ldur (quote (1000)) :lvel (quote (100)) :loffset (quote (0)) :lchan (quote (1))))) (load-port-info thechord (quote (0))) (init-mus-color thechord (quote nil)) (set-extra-pairs thechord (quote nil)) (set-tonalite thechord nil) thechord) (let ((thechord (make-instance (quote chord) :lmidic (quote (6000)) :ldur (quote (1000)) :lvel (quote (100)) :loffset (quote (0)) :lchan (quote (1))))) (load-port-info thechord (quote (0))) (init-mus-color thechord (quote nil)) (set-extra-pairs thechord (quote nil)) (set-tonalite thechord nil) thechord) (let ((thechord (make-instance (quote chord) :lmidic (quote (6000)) :ldur (quote (1000)) :lvel (quote (100)) :loffset (quote (0)) :lchan (quote (1))))) (load-port-info thechord (quote (0))) (init-mus-color thechord (quote nil)) (set-extra-pairs thechord (quote nil)) (set-tonalite thechord nil) thechord)))) :tempo (quote ((1/4 60) nil)) :legato 100 :ties (quote (nil nil nil nil)))))) (load-port-info newobj (quote nil)) (init-mus-color newobj (quote nil)) (set-extra-pairs newobj (quote nil)) (set-patch-pairs newobj (quote nil)) (set-name newobj nil) (set-tonalite newobj nil) newobj)) :from-file t))) (load-port-info newobj (quote (nil))) (init-mus-color newobj (quote nil)) (set-extra-pairs newobj (quote nil)) (set-patch-pairs newobj (quote nil)) (set-name newobj nil) (set-tonalite newobj nil) newobj))) om-darwin::ga) nil nil (pairlis (quote (scale show-stems cursor-mode obj-mode score-mode winpos winsize mode grillestep notechancolor? zoom player inport outport deltapict cmnpref staff fontsize approx)) (list nil (quote t) (quote :normal) 1 0 (om-make-point 400 20) (om-make-point 370 280) 0 1000 nil 1 (quote :midi-player) nil nil (om-make-point 0 0) (let ((newobj (make-instance (quote edition-values)))) (setf (paper-size newobj) (om-make-point 600 800)) (setf (top-margin newobj) 2) (setf (left-margin newobj) 1) (setf (right-margin newobj) 1) (setf (bottom-margin newobj) 1) (setf (orientation newobj) nil) (setf (scale newobj) nil) (setf (system-space newobj) (quote (1))) (setf (system-color newobj) (quote nil)) (setf (line-space newobj) 1) (setf (title newobj) nil) (setf (show-title? newobj) nil) (setf (show-page? newobj) nil) (setf (sheet-id newobj) nil) (setf (page-mode newobj) nil) newobj) (quote g) 24 2)) nil nil nil nil))) (when (fboundp (quote set-active)) (set-active box nil)) box) (let ((box (om-load-boxcall (quote lispfun) "REINIT" (quote om-darwin::reinit) (quote ((om-load-inputfun (quote input-funbox) "SELF" "SELF" nil))) (om-make-point 365 498) nil nil nil nil 1))) (when (fboundp (quote set-active)) (set-active box nil)) box) (let ((box (om-load-boxcall (quote bastype) "aux 3" (quote t) (quote nil) (om-make-point 183 32) (om-make-point 34 30) 36 "36" nil))) (when (fboundp (quote set-active)) (set-active box nil)) box) (let ((box (om-load-boxcall (quote bastype) "aux 2" (quote t) (quote nil) (om-make-point 343 14) (om-make-point 62 30) (list 30 90) "(30 90)" nil))) (when (fboundp (quote set-active)) (set-active box nil)) box) (let ((box (om-load-boxcall (quote genfun) "MAKE-MELODY" (quote make-melody) (quote ((om-load-inputfun (quote input-funbox) "" "NUM-OPERONS" 8) (om-load-inputfun (quote input-funbox) "" "RANGE" (list 60 72)))) (om-make-point 230 112) nil nil nil nil 1))) (when (fboundp (quote set-active)) (set-active box nil)) box) (let ((box (om-load-boxcall (quote lispfun) "STOP" (quote om-darwin::stop) (quote ((om-load-inputfun (quote input-funbox) "SELF" "SELF" nil))) (om-make-point 140 468) nil nil nil nil 1))) (when (fboundp (quote set-active)) (set-active box nil)) box) (let ((box (om-load-boxcall (quote lispfun) "START" (quote om-darwin::start) (quote ((om-load-inputfun (quote input-funbox) "SELF" "SELF" nil))) (om-make-point 235 487) nil nil nil nil 1))) (when (fboundp (quote set-active)) (set-active box nil)) box) (let ((box (om-load-boxcall (quote lispfun) "SET-FITNESS-FUNCTION" (quote om-darwin::set-fitness-function) (quote ((om-load-inputfun (quote input-funbox) "SELF" "SELF" nil) (om-load-inputfun (quote input-funbox) "FITNESS-FUNCTION" "FITNESS-FUNCTION" nil))) (om-make-point 564 510) nil nil nil nil 1))) (when (fboundp (quote set-active)) (set-active box nil)) box) (let ((box (om-load-boxcall (quote bastype) "aux" (quote t) (quote nil) (om-make-point 694 41) (om-make-point 62 30) (list 30 90) "(30 90)" nil))) (when (fboundp (quote set-active)) (set-active box nil)) box) (let ((box (om-load-boxcall (quote patch-box) "range and rising" (quote ("elements" "range and rising")) (quote ((om-load-inputfun (quote input-funbox) "" "SPEC" nil) (om-load-inputfun (quote input-funbox) "" "RANGE" nil))) (om-make-point 518 119) (om-make-point 194 67) (list nil) "l" nil 1))) (when (fboundp (quote set-active)) (set-active box nil)) box))) (quote ((2 0 4 0 nil 0) (3 0 4 1 nil 0) (9 0 7 1 nil 0) (8 0 9 1 nil 0))) nil 6.090014))
