; OM File Header - Saved 2015/06/09 16:58:26
; (6.050102 :patc (om-make-point 24 24) (om-make-point 50 50) (om-make-point 500 400) "" 183 0 nil nil)
; End File Header
(in-package :om)(load-lib-for (quote ("om4csound" "om-geof")))(setf *om-current-persistent* (om-load-patch1 "HIPASS" (quote ((om-load-boxout "output0" 0 (om-make-point 258 413) (quote ((om-load-inputfun (quote input-funbox) "" "out" nil))) nil nil) (om-load-boxin "input0" 0 (om-make-point 253 50) "" nil nil nil) (om-load-boxcall (quote bastype) "aux 3" (quote t) (quote nil) (om-make-point 157 191) (om-make-point 35 30) 800 "800" nil) (om-load-boxcall (quote bastype) "aux 5" (quote t) (quote nil) (om-make-point 210 241) (om-make-point 31 30) (list 0) "(0)" nil) (om-load-boxcall (quote genfun) "SOUND-DUR" (quote sound-dur) (quote ((om-load-inputfun (quote input-funbox) "a sound object or file pathname" "SOUND" nil))) (om-make-point 310 230) nil nil nil nil 1) (om-load-boxcall (quote genfun) "EASY-CSD" (quote easy-csd) (quote ((om-load-inputfun (quote input-funbox) "instrument : an opcode or a list of opcodes, or a lambda function with at least one input (p3)" "OPCODES" nil) (om-load-inputfun (quote input-funbox) "p2 (offset)" "PARAMS" nil) (om-load-inputfun (quote input-funbox) "p3 (duration)" "PARAMS" nil))) (om-make-point 218 325) nil nil nil nil 1) (om-load-boxcall (quote genfun) "A_ATONE" (quote om-auro::a_atone) (quote ((om-load-inputfun (quote input-funbox) "" "ASIG" 0) (om-load-inputfun (quote input-funbox) "" "KHP" 0))) (om-make-point 122 250) nil nil nil nil 1) (om-load-boxcall (quote genfun) "A_DISKIN2" (quote om-auro::a_diskin2) (quote ((om-load-inputfun (quote input-funbox) "" "IFILCOD" 1) (om-load-inputfun (quote input-funbox) "" "KPITCH" 1))) (om-make-point 50 154) nil nil nil nil 1))) (quote ((5 0 0 0 nil 0) (1 0 4 0 nil 0) (6 0 5 0 nil 0) (3 0 5 1 nil 0) (4 0 5 2 nil 0) (7 0 6 0 nil 0) (2 0 6 1 nil 0) (1 0 7 0 nil 0))) nil 6.050102))
