; OM File Header - Saved 2015/06/09 16:58:26
; (6.050102 :patc (om-make-point 10 10) (om-make-point 50 0) (om-make-point 996 756) "" 183 0 nil nil)
; End File Header
; External resources 
; (list (list (quote :sound) "../../in-files/ASax-slap-A3-f.aif" "../../out-files/easy-out-169.aiff"))
(in-package :om)(load-lib-for (quote ("om-geof" "om4csound")))(setf *om-current-persistent* (om-load-patch1 "multi-convolver" (quote ((om-load-boxcall (quote genfun) "A_PCONVOLVE 2" (quote om-auro::a_pconvolve) (quote ((om-load-inputfun (quote input-funbox) "" "AIN" 1) (om-load-inputfun (quote input-funbox) "" "IFILCOD" 1) (om-load-inputfunmenu1 (quote input-funmenu) "" "IPARTITIONSIZE" 1 (list (list "0bit (0)" 0) (list "1bit (2)" 2) (list "2bit (4)" 4) (list "3bit (8)" 8) (list "4bit (16)" 16) (list "5bit (32)" 32) (list "6bit (64)" 64) (list "7bit (128)" 128) (list "8bit (256)" 256) (list "9bit (512)" 512) (list "10bit (1024)" 1024) (list "11bit (2048)" 2048) (list "12bit (4096)" 4096) (list "13bit (8192)" 8192) (list "14bit (16384)" 16384) (list "15bit (32768)" 32768) (list "16bit (65536)" 65536) (list "17bit (131072)" 131072) (list "18bit (262144)" 262144) (list "19bit (524288)" 524288) (list "20bit (1048576)" 1048576) (list "21bit (2097152)" 2097152) (list "22bit (4194304)" 4194304) (list "23bit (8388608)" 8388608) (list "24bit (16777216)" 16777216))))) (om-make-point 808 306) nil nil nil nil 1) (om-load-boxcall (quote lispfun) "1-" (quote 1-) (quote ((om-load-inputfun (quote input-funbox) "X" "X" nil))) (om-make-point 481 390) nil nil nil nil 1) (om-load-boxcall (quote genfun) "ARITHM-SER" (quote arithm-ser) (quote ((om-load-inputfun (quote input-funbox) "begin" "BEGIN" 0) (om-load-inputfun (quote input-funbox) "end " "END" 10) (om-load-inputfun (quote input-funbox) "step" "STEP" 1))) (om-make-point 269 435) nil nil nil nil 1) (om-load-boxcall (quote genfun) "NTH-RANDOM" (quote nth-random) (quote ((om-load-inputfun (quote input-funbox) "a list" "LIST" nil))) (om-make-point 522 280) nil nil "l" nil 1) (om-load-boxcall (quote genfun) "REPEAT-N" (quote repeat-n) (quote ((om-load-inputfun (quote input-funbox) "something" "SELF" nil) (om-load-inputfun (quote input-funbox) "times" "N" 0))) (om-make-point 586 436) nil nil nil nil 1) (om-load-boxcall (quote bastype) "aux 4" (quote t) (quote nil) (om-make-point 655 259) (om-make-point 21 30) 2 "2" nil) (om-load-boxcall (quote bastype) "aux 3" (quote t) (quote nil) (om-make-point 716 87) (om-make-point 38 30) "aif" "\"aif\"" nil) (om-load-boxcall (quote lispfun) "OM-DIRECTORY" (quote om-directory) (quote ((om-load-inputfun (quote input-funbox) "PATH" "PATH" nil) (om-load-inputkeyword (quote input-keyword) "" "type" (quote :type) nil nil))) (om-make-point 570 148) nil nil nil nil 1) (om-load-boxcall (quote lispfun) "OM-CHOOSE-DIRECTORY-DIALOG" (quote om-choose-directory-dialog) (quote nil) (om-make-point 514 56) nil (list (om-make-pathname :directory (quote (:absolute "Users" "geofholbrook" "Data" "projects" "supersound-wksp 0.20i-B" "in-files" "IR's")) :device :unspecific :host :unspecific :name nil :type nil)) "x" nil 1) (om-load-boxcall (quote genfun) "P4" (quote om-auro::p4) (quote nil) (om-make-point 307 60) nil nil nil nil 1) (om-load-editor-box1 "ASax-slap-A3-f.aif" (quote sound) (quote ((om-load-inputfun (quote input-funbox) "object" "self" nil) (om-load-inputfun (quote input-funbox) "a track index for multichannel mixing" "tracknum" 1) (om-load-inputfun (quote input-funbox) "a list of markers (s)" "markers" nil))) (om-make-point 89 35) (om-make-point 80 50) (let ((newobj (let ((thesound (load-sound (om-make-pathname :directory (quote (:relative "in-files")) :device :unspecific :host :unspecific :name "ASax-slap-A3-f" :type "aif") 1))) (when thesound (setf (markers thesound) (quote nil))) thesound))) (load-port-info newobj (quote nil)) (init-mus-color newobj (quote nil)) (set-extra-pairs newobj (quote nil)) (set-patch-pairs newobj (quote nil)) (set-name newobj "ASax-slap-A3-f.aif") (set-tonalite newobj nil) newobj) "x" nil (pairlis (quote (palette-mode scale show-stems obj-mode score-mode winpos winsize mode grillestep notechancolor? zoom player inport outport deltapict cmnpref staff fontsize approx)) (list 0 nil (quote t) 1 0 (om-make-point 400 20) (om-make-point 370 280) 0 1000 nil 1 (quote :libaudio) 0 nil (om-make-point 0 0) (let ((newobj (make-instance (quote edition-values)))) (setf (paper-size newobj) (om-make-point 600 800)) (setf (top-margin newobj) 2) (setf (left-margin newobj) 1) (setf (right-margin newobj) 1) (setf (bottom-margin newobj) 1) (setf (orientation newobj) nil) (setf (scale newobj) nil) (setf (system-space newobj) (quote (1))) (setf (system-color newobj) (quote nil)) (setf (line-space newobj) 1) (setf (title newobj) nil) (setf (show-title? newobj) nil) (setf (show-page? newobj) nil) (setf (sheet-id newobj) nil) (setf (page-mode newobj) nil) newobj) (quote g) 24 2)) t nil nil nil) (om-load-boxcall (quote bastype) "aux 2" (quote t) (quote nil) (om-make-point 443 264) (om-make-point 21 30) 1 "1" nil) (om-load-boxcall (quote genfun) "OM+" (quote om+) (quote ((om-load-inputfun (quote input-funbox) "number or list" "SELF" 0) (om-load-inputfun (quote input-funbox) "number or list" "NUM" 0))) (om-make-point 304 326) (om-make-point 163 35) nil nil nil 1) (om-load-boxcall (quote genfun) "SOUND-DUR" (quote sound-dur) (quote ((om-load-inputfun (quote input-funbox) "a sound object or file pathname" "SOUND" nil))) (om-make-point 328 206) nil nil nil nil 1) (om-load-editor-box1 "easy-out-169.aiff" (quote sound) (quote ((om-load-inputfun (quote input-funbox) "object" "self" nil) (om-load-inputfun (quote input-funbox) "a track index for multichannel mixing" "tracknum" 1) (om-load-inputfun (quote input-funbox) "a list of markers (s)" "markers" nil))) (om-make-point 198 614) (om-make-point 222 88) (let ((newobj (let ((thesound (load-sound (om-make-pathname :directory (quote (:relative "out-files")) :device :unspecific :host :unspecific :name "easy-out-169" :type "aiff") 1))) (when thesound (setf (markers thesound) (quote nil))) thesound))) (load-port-info newobj (quote nil)) (init-mus-color newobj (quote nil)) (set-extra-pairs newobj (quote nil)) (set-patch-pairs newobj (quote nil)) (set-name newobj "easy-out-169.aiff") (set-tonalite newobj nil) newobj) nil nil (pairlis (quote (palette-mode scale show-stems obj-mode score-mode winpos winsize mode grillestep notechancolor? zoom player inport outport deltapict cmnpref staff fontsize approx)) (list 0 nil (quote t) 1 0 (om-make-point 400 20) (om-make-point 1259 996) 0 1000 nil 1 (quote :libaudio) 0 nil (om-make-point 0 0) (let ((newobj (make-instance (quote edition-values)))) (setf (paper-size newobj) (om-make-point 600 800)) (setf (top-margin newobj) 2) (setf (left-margin newobj) 1) (setf (right-margin newobj) 1) (setf (bottom-margin newobj) 1) (setf (orientation newobj) nil) (setf (scale newobj) nil) (setf (system-space newobj) (quote (1))) (setf (system-color newobj) (quote nil)) (setf (line-space newobj) 1) (setf (title newobj) nil) (setf (show-title? newobj) nil) (setf (show-page? newobj) nil) (setf (sheet-id newobj) nil) (setf (page-mode newobj) nil) newobj) (quote g) 24 2)) t nil nil t) (om-load-boxcall (quote genfun) "A_DISKIN2" (quote om-auro::a_diskin2) (quote ((om-load-inputfun (quote input-funbox) "" "IFILCOD" 1) (om-load-inputfun (quote input-funbox) "" "KPITCH" 1))) (om-make-point 45 196) nil nil nil nil 1) (om-load-boxcall (quote genfun) "A_PCONVOLVE" (quote om-auro::a_pconvolve) (quote ((om-load-inputfun (quote input-funbox) "" "AIN" 1) (om-load-inputfun (quote input-funbox) "" "IFILCOD" 1) (om-load-inputfunmenu1 (quote input-funmenu) "" "IPARTITIONSIZE" 1 (list (list "0bit (0)" 0) (list "1bit (2)" 2) (list "2bit (4)" 4) (list "3bit (8)" 8) (list "4bit (16)" 16) (list "5bit (32)" 32) (list "6bit (64)" 64) (list "7bit (128)" 128) (list "8bit (256)" 256) (list "9bit (512)" 512) (list "10bit (1024)" 1024) (list "11bit (2048)" 2048) (list "12bit (4096)" 4096) (list "13bit (8192)" 8192) (list "14bit (16384)" 16384) (list "15bit (32768)" 32768) (list "16bit (65536)" 65536) (list "17bit (131072)" 131072) (list "18bit (262144)" 262144) (list "19bit (524288)" 524288) (list "20bit (1048576)" 1048576) (list "21bit (2097152)" 2097152) (list "22bit (4194304)" 4194304) (list "23bit (8388608)" 8388608) (list "24bit (16777216)" 16777216))))) (om-make-point 54 349) (om-make-point 144 59) nil nil nil 1) (om-load-boxcall (quote genfun) "EASY-CSD" (quote easy-csd) (quote ((om-load-inputfun (quote input-funbox) "instrument : an opcode or a list of opcodes, or a lambda function with at least one input (p3)" "OPCODES" nil) (om-load-inputfun (quote input-funbox) "p2 (offset)" "PARAMS" nil) (om-load-inputfun (quote input-funbox) "p3 (duration)" "PARAMS" nil) (om-load-inputfun (quote input-funbox) "p4" "PARAMS" nil))) (om-make-point 236 534) (om-make-point 151 59) nil nil nil 1))) (quote ((5 0 1 0 nil 0) (1 0 2 1 nil 0) (7 0 3 0 nil 0) (3 0 4 0 nil 0) (5 0 4 1 nil 0) (8 0 7 0 nil 0) (6 0 7 1 nil 0) (13 0 12 0 nil 0) (11 0 12 1 nil 0) (10 0 13 0 nil 0) (17 0 14 0 nil 0) (10 0 15 0 nil 0) (15 0 16 0 nil 0) (9 0 16 1 nil 0) (16 0 17 0 nil 0) (2 0 17 1 nil 0) (12 0 17 2 nil 0) (3 0 17 3 nil 0))) nil 6.050102))
