; OM File Header - Saved 2015/06/21 23:23:34
; (6.1 :patc (om-make-point 24 24) (om-make-point 56 50) (om-make-point 500 400) "" 183 0 nil "2015/06/21 23:23:34")
; End File Header
(in-package :om)(load-lib-for (quote nil))(setf *om-current-persistent* (om-load-patch1 "compare dissonance to goal" (quote ((let ((box (om-load-boxcall (quote genfun) "OM-ABS" (quote om-abs) (quote ((om-load-inputfun (quote input-funbox) "number or tree" "SELF" 1))) (om-make-point 160 291) nil nil nil nil 1))) (when (fboundp (quote set-active)) (set-active box nil)) box) (let ((box (om-load-boxcall (quote genfun) "OM-" (quote om-) (quote ((om-load-inputfun (quote input-funbox) "number or list" "SELF" 0) (om-load-inputfun (quote input-funbox) "number or list" "NUM" 0))) (om-make-point 210 221) nil nil nil nil 1))) (when (fboundp (quote set-active)) (set-active box nil)) box) (let ((box (om-load-boxin "goal" 1 (om-make-point 231 58) "" "goal" nil nil))) (when (fboundp (quote set-active)) (set-active box nil)) box) (let ((box (om-load-boxin "chord" 0 (om-make-point 105 45) "" "chord" nil nil))) (when (fboundp (quote set-active)) (set-active box nil)) box) (let ((box (om-load-boxout "output" 0 (om-make-point 171 390) (quote ((om-load-inputfun (quote input-funbox) "" "out" nil))) nil nil))) (when (fboundp (quote set-active)) (set-active box nil)) box) (let ((box (om-load-boxcall (quote lispfun) "ACOUSTIC-DISSONANCE" (quote acoustic-dissonance) (quote ((om-load-inputfun (quote input-funbox) "PITCHES" "PITCHES" nil))) (om-make-point 52 145) nil nil nil nil 1))) (when (fboundp (quote set-active)) (set-active box nil)) box))) (quote ((1 0 0 0 nil 0) (5 0 1 0 nil 0) (2 0 1 1 nil 0) (0 0 4 0 nil 0) (3 0 5 0 nil 0))) nil 6.1))
