; OM File Header - Saved 2015/06/22 11:24:33
; (6.1 :patc (om-make-point 10 10) (om-make-point 183 38) (om-make-point 724 534) "" 183 0 nil "2015/06/21 19:18:36")
; End File Header
; External resources 
; (list (list (quote :abstraction) "#P\"read-lines-as-lists.omp\""))
(in-package :om)(load-lib-for (quote nil))(setf *om-current-persistent* (om-load-patch1 "import corpus data" (quote ((let ((box (om-load-editor-box1 "CORPUS 2" (quote corpus) (quote ((om-load-inputfun (quote input-funbox) "object" "self" nil) (om-load-inputfun (quote input-funbox) "no doc" "corpus-descriptors" (quote t)) (om-load-inputfun (quote input-funbox) "no doc" "corpus-soundfiles" (quote t)) (om-load-inputfun (quote input-funbox) "no doc" "corpus-data" (quote t)))) (om-make-point 241 335) (om-make-point 70 50) (if (find-class (quote corpus) nil) (make-instance (quote corpus) :corpus-descriptors nil :corpus-soundfiles nil :corpus-data nil :from-file t)) nil nil (pairlis (quote (winpos winsize)) (list (om-make-point 150 100) (om-make-point 828 309))) nil nil nil nil))) (when (fboundp (quote set-active)) (set-active box nil)) box) (let ((box (om-load-boxout "output" 0 (om-make-point 228 432) (quote ((om-load-inputfun (quote input-funbox) "" "out" nil))) nil nil))) (when (fboundp (quote set-active)) (set-active box nil)) box) (let ((box (om-load-boxcall (quote patch-box) "read-lines-as-lists 2" (quote ("elements" "om-catart" "lib" "read-lines-as-lists")) (quote ((om-load-inputfun (quote input-funbox) "" "input0" nil))) (om-make-point 401 208) nil (list nil) nil "read-lines-as-lists" 1))) (when (fboundp (quote set-active)) (set-active box nil)) box) (let ((box (om-load-boxcall (quote patch-box) "read-lines-as-lists 2" (quote ("elements" "om-catart" "lib" "read-lines-as-lists")) (quote ((om-load-inputfun (quote input-funbox) "" "input0" nil))) (om-make-point 271 210) nil (list nil) nil "read-lines-as-lists" 1))) (when (fboundp (quote set-active)) (set-active box nil)) box) (let ((box (om-load-boxcall (quote patch-box) "read-lines-as-lists 2" (quote ("elements" "om-catart" "lib" "read-lines-as-lists")) (quote ((om-load-inputfun (quote input-funbox) "" "input0" nil))) (om-make-point 119 207) nil (list (list (list (quote unitid) (quote list) " ") (list (quote relid) (quote list) " ") (list (quote unittype) (quote list) " ") (list (quote soundfile) (quote list) "PR.P.10.02.aif" "PR.P.10.03.aif" "PR.P.10.04.aif" "PR.P.10.05.aif" "PR.P.10.06.aif" "PR.P.10.07.aif" "PR.P.10.08.aif" "PR.P.10.09.aif" "PR.P.10.10.aif" "PR.P.10.11.aif" "PR.P.10.12.aif" "PR.P.10.13.aif" "PR.P.10.14.aif" "PR.P.10.15.aif" "PR.P.10.16.aif" "PR.P.10.17.aif" "PR.P.10.18.aif" "PR.P.10.19.aif" "PR.P.10.20.aif" "PR.P.10.21.aif" "PR.P.10.22.aif" "PR.P.10.23.aif" "PR.P.10.24.aif" "PR.P.10.25.aif" "PR.P.11.01.aif" "PR.P.11.02.aif" "PR.P.11.03.aif" "PR.P.11.04.aif" "PR.P.11.05.aif" "PR.P.11.06.aif" "PR.P.11.07.aif" "PR.P.11.08.aif" "PR.P.11.09.aif" "PR.P.11.10.aif" "PR.P.11.11.aif" "PR.P.11.12.aif" "PR.P.11.13.aif" "PR.P.11.14.aif" "PR.P.11.15.aif" "PR.P.11.16.aif" "PR.P.11.17.aif" "PR.P.11.18.aif" "PR.P.11.19.aif" "PR.P.11.20.aif" "PR.P.11.21.aif" "PR.P.11.22.aif" "PR.P.11.23.aif" "PR.P.11.24.aif" "PR.P.11.25.aif" "PR.P.11.26.aif" "PR.P.12.01.aif" "PR.P.12.02.aif" "PR.P.12.03.aif" "PR.P.12.04.aif" "PR.P.12.05.aif" "PR.P.12.06.aif" "PR.P.12.07.aif" "PR.P.12.08.aif" "PR.P.12.09.aif" "PR.P.12.10.aif" "PR.P.12.11.aif" "PR.P.12.12.aif" "PR.P.12.13.aif" "PR.P.12.14.aif" "PR.P.12.15.aif" "PR.P.12.16.aif" "PR.P.12.17.aif" "PR.P.12.18.aif" "PR.P.12.19.aif" "PR.P.12.20.aif" "PR.P.12.21.aif" "PR.P.12.22.aif" "PR.P.12.23.aif" "PR.P.12.24.aif" "PR.P.12.25.aif" "PR.P.12.26.aif" "PR.P.12.27.aif" "PR.P.13.01.aif" "PR.P.13.02.aif" "PR.P.13.03.aif" "PR.P.13.04.aif" "PR.P.13.05.aif" "PR.P.13.06.aif" "PR.P.13.07.aif" "PR.P.13.08.aif" "PR.P.13.09.aif" "PR.P.13.10.aif" "PR.P.13.11.aif" "PR.P.13.12.aif" "PR.P.13.13.aif" "PR.P.13.14.aif" "PR.P.13.15.aif" "PR.P.13.16.aif" "PR.P.13.17.aif" "PR.P.13.18.aif" "PR.P.13.19.aif" "PR.P.13.20.aif" "PR.P.13.21.aif" "PR.P.13.22.aif" "PR.P.14.01.aif" "PR.P.14.02.aif" "PR.P.14.03.aif" "PR.P.14.04.aif" "PR.P.14.05.aif" "PR.P.14.06.aif" "PR.P.14.07.aif" "PR.P.14.08.aif" "PR.P.14.09.aif" "PR.P.14.10.aif" "PR.P.14.11.aif" "PR.P.14.12.aif" "PR.P.14.13.aif" "PR.P.14.14.aif" "PR.P.14.15.aif" "PR.P.14.16.aif" "PR.P.14.17.aif" "PR.P.14.18.aif" "PR.P.14.19.aif" "PR.P.14.20.aif" "PR.P.14.21.aif" "PR.P.14.22.aif" "PR.P.15.01.aif" "PR.P.15.02.aif" "PR.P.15.03.aif" "PR.P.15.04.aif" "PR.P.15.05.aif" "PR.P.15.06.aif" "PR.P.15.07.aif" "PR.P.15.08.aif" "PR.P.15.09.aif" "PR.P.15.10.aif" "PR.P.15.11.aif" "PR.P.15.12.aif" "PR.P.15.13.aif" "PR.P.15.14.aif" "PR.P.15.15.aif" "PR.P.15.16.aif" "PR.P.15.17.aif" "PR.P.15.18.aif" "PR.P.15.19.aif" "PR.P.15.20.aif" "PR.P.15.21.aif" "PR.P.15.22.aif" "PR.P.15.23.aif" "PR.P.16.01.aif" "PR.P.16.02.aif" "PR.P.16.03.aif" "PR.P.16.04.aif" "PR.P.16.05.aif" "PR.P.16.06.aif" "PR.P.16.07.aif" "PR.P.16.08.aif" "PR.P.16.09.aif" "PR.P.16.10.aif" "PR.P.16.11.aif" "PR.P.16.12.aif" "PR.P.16.13.aif" "PR.P.16.14.aif" "PR.P.16.15.aif" "PR.P.16.16.aif" "PR.P.16.17.aif" "PR.P.16.18.aif" "PR.P.16.19.aif" "PR.P.16.20.aif" "PR.P.16.21.aif" "PR.P.16.22.aif" "PR.P.16.23.aif" "PR.P.17.01.aif" "PR.P.17.02.aif" "PR.P.17.03.aif" "PR.P.17.04.aif" "PR.P.17.05.aif" "PR.P.17.06.aif" "PR.P.17.07.aif" "PR.P.17.08.aif" "PR.P.17.09.aif" "PR.P.17.10.aif" "PR.P.17.11.aif" "PR.P.17.12.aif" "PR.P.17.13.aif" "PR.P.17.14.aif" "PR.P.17.15.aif" "PR.P.17.16.aif" "PR.P.17.17.aif" "PR.P.17.18.aif" "PR.P.18.01.aif" "PR.P.18.02.aif" "PR.P.18.03.aif" "PR.P.18.04.aif" "PR.P.18.05.aif" "PR.P.18.06.aif" "PR.P.18.07.aif" "PR.P.18.08.aif" "PR.P.18.09.aif" "PR.P.18.10.aif" "PR.P.18.11.aif" "PR.P.18.12.aif" "PR.P.18.13.aif" "PR.P.18.14.aif" "PR.P.18.15.aif" "PR.P.18.16.aif" "PR.P.18.17.aif" "PR.P.18.18.aif" "PR.P.18.19.aif" "PR.P.18.20.aif" "PR.P.18.21.aif" "PR.P.18.22.aif" "PR.P.18.23.aif" "PR.P.18.24.aif" "PR.P.19.01.aif" "PR.P.19.02.aif" "PR.P.19.03.aif" "PR.P.19.04.aif" "PR.P.19.05.aif" "PR.P.19.06.aif" "PR.P.19.07.aif" "PR.P.19.08.aif" "PR.P.19.09.aif" "PR.P.19.10.aif" "PR.P.19.11.aif" "PR.P.19.12.aif" "PR.P.19.13.aif" "PR.P.19.14.aif" "PR.P.19.15.aif" "PR.P.19.16.aif" "PR.P.19.17.aif" "PR.P.19.18.aif" "PR.P.19.19.aif" "PR.P.19.20.aif" "PR.P.19.21.aif" "PR.P.19.22.aif" "PR.P.19.23.aif" "PR.P.19.24.aif" "PR.P.01.01.aif" "PR.P.01.02.aif" "PR.P.01.03.aif" "PR.P.01.04.aif" "PR.P.01.05.aif" "PR.P.01.06.aif" "PR.P.01.07.aif" "PR.P.01.08.aif" "PR.P.01.09.aif" "PR.P.01.10.aif" "PR.P.01.11.aif" "PR.P.01.12.aif" "PR.P.01.13.aif" "PR.P.01.14.aif" "PR.P.01.15.aif" "PR.P.01.16.aif" "PR.P.01.17.aif" "PR.P.01.18.aif" "PR.P.01.19.aif" "PR.P.01.20.aif" "PR.P.01.21.aif" "PR.P.01.22.aif" "PR.P.01.23.aif" "PR.P.01.24.aif" "PR.P.01.25.aif" "PR.P.01.26.aif" "PR.P.01.27.aif" "PR.P.20.01.aif" "PR.P.20.02.aif" "PR.P.20.03.aif" "PR.P.20.04.aif" "PR.P.20.05.aif" "PR.P.20.06.aif" "PR.P.20.07.aif" "PR.P.20.08.aif" "PR.P.20.09.aif" "PR.P.20.10.aif" "PR.P.20.11.aif" "PR.P.20.12.aif" "PR.P.20.13.aif" "PR.P.20.14.aif" "PR.P.20.15.aif" "PR.P.20.16.aif" "PR.P.20.17.aif" "PR.P.20.18.aif" "PR.P.20.19.aif" "PR.P.20.20.aif" "PR.P.20.21.aif" "PR.P.20.22.aif" "PR.P.20.23.aif" "PR.P.20.24.aif" "PR.P.20.25.aif" "PR.P.20.26.aif" "PR.P.20.27.aif" "PR.P.20.28.aif" "PR.P.20.29.aif" "PR.P.20.30.aif" "PR.P.20.31.aif" "PR.P.20.32.aif" "PR.P.20.33.aif" "PR.P.20.34.aif" "PR.P.20.35.aif" "PR.P.20.36.aif" "PR.P.20.37.aif" "PR.P.20.38.aif" "PR.P.20.39.aif" "PR.P.20.40.aif" "PR.P.20.41.aif" "PR.P.21.01.aif" "PR.P.21.02.aif" "PR.P.21.03.aif" "PR.P.21.04.aif" "PR.P.21.05.aif" "PR.P.21.06.aif" "PR.P.21.07.aif" "PR.P.21.08.aif" "PR.P.21.09.aif" "PR.P.21.10.aif" "PR.P.21.11.aif" "PR.P.21.12.aif" "PR.P.21.13.aif" "PR.P.21.14.aif" "PR.P.21.15.aif" "PR.P.21.16.aif" "PR.P.21.17.aif" "PR.P.21.18.aif" "PR.P.21.19.aif" "PR.P.21.20.aif" "PR.P.21.21.aif" "PR.P.21.22.aif" "PR.P.21.23.aif" "PR.P.21.24.aif" "PR.P.21.25.aif" "PR.P.21.26.aif" "PR.P.21.27.aif" "PR.P.21.28.aif" "PR.P.21.29.aif" "PR.P.21.30.aif" "PR.P.21.31.aif" "PR.P.21.32.aif" "PR.P.21.33.aif" "PR.P.21.34.aif" "PR.P.21.35.aif" "PR.P.21.36.aif" "PR.P.21.37.aif" "PR.P.21.38.aif" "PR.P.21.39.aif" "PR.P.21.40.aif" "PR.P.21.41.aif" "PR.P.24.01.aif" "PR.P.24.02.aif" "PR.P.24.03.aif" "PR.P.24.04.aif" "PR.P.24.05.aif" "PR.P.24.06.aif" "PR.P.24.07.aif" "PR.P.24.08.aif" "PR.P.24.09.aif" "PR.P.24.10.aif" "PR.P.24.11.aif" "PR.P.24.12.aif" "PR.P.24.13.aif" "PR.P.24.14.aif" "PR.P.24.15.aif" "PR.P.24.16.aif" "PR.P.24.17.aif" "PR.P.24.18.aif" "PR.P.24.19.aif" "PR.P.24.20.aif" "PR.P.24.21.aif" "PR.P.24.22.aif" "PR.P.24.23.aif" "PR.P.24.24.aif" "PR.P.24.25.aif" "PR.P.24.26.aif" "PR.P.24.27.aif" "PR.P.02.01.aif" "PR.P.02.02.aif" "PR.P.02.03.aif" "PR.P.02.04.aif" "PR.P.02.05.aif" "PR.P.02.06.aif" "PR.P.02.07.aif" "PR.P.02.08.aif" "PR.P.02.09.aif" "PR.P.02.10.aif" "PR.P.02.11.aif" "PR.P.02.12.aif" "PR.P.02.13.aif" "PR.P.02.14.aif" "PR.P.02.15.aif" "PR.P.02.16.aif" "PR.P.02.17.aif" "PR.P.02.18.aif" "PR.P.02.19.aif" "PR.P.02.20.aif" "PR.P.02.21.aif" "PR.P.02.22.aif" "PR.P.02.23.aif" "PR.P.03.01.aif" "PR.P.03.02.aif" "PR.P.03.03.aif" "PR.P.03.04.aif" "PR.P.03.05.aif" "PR.P.03.06.aif" "PR.P.03.07.aif" "PR.P.03.08.aif" "PR.P.03.09.aif" "PR.P.03.10.aif" "PR.P.03.11.aif" "PR.P.03.12.aif" "PR.P.03.13.aif" "PR.P.03.14.aif" "PR.P.03.15.aif" "PR.P.03.16.aif" "PR.P.03.17.aif" "PR.P.03.18.aif" "PR.P.03.19.aif" "PR.P.03.20.aif" "PR.P.03.21.aif" "PR.P.03.22.aif" "PR.P.03.23.aif" "PR.P.04.01.aif" "PR.P.04.02.aif" "PR.P.04.03.aif" "PR.P.04.04.aif" "PR.P.04.05.aif" "PR.P.04.06.aif" "PR.P.04.07.aif" "PR.P.04.08.aif" "PR.P.04.09.aif" "PR.P.04.10.aif" "PR.P.04.11.aif" "PR.P.04.12.aif" "PR.P.04.13.aif" "PR.P.04.14.aif" "PR.P.04.15.aif" "PR.P.04.16.aif" "PR.P.04.17.aif" "PR.P.04.18.aif" "PR.P.04.19.aif" "PR.P.04.20.aif" "PR.P.04.21.aif" "PR.P.04.22.aif" "PR.P.04.23.aif" "PR.P.05.01.aif" "PR.P.05.02.aif" "PR.P.05.03.aif" "PR.P.05.04.aif" "PR.P.05.05.aif" "PR.P.05.06.aif" "PR.P.05.07.aif" "PR.P.05.08.aif" "PR.P.05.09.aif" "PR.P.05.10.aif" "PR.P.05.11.aif" "PR.P.05.12.aif" "PR.P.05.13.aif" "PR.P.05.14.aif" "PR.P.05.15.aif" "PR.P.05.16.aif" "PR.P.05.17.aif" "PR.P.05.18.aif" "PR.P.05.19.aif" "PR.P.05.20.aif" "PR.P.05.21.aif" "PR.P.05.22.aif" "PR.P.05.23.aif" "PR.P.06.01.aif" "PR.P.06.02.aif" "PR.P.06.03.aif" "PR.P.06.04.aif" "PR.P.06.05.aif" "PR.P.06.06.aif" "PR.P.06.07.aif" "PR.P.06.08.aif" "PR.P.06.09.aif" "PR.P.06.10.aif" "PR.P.06.11.aif" "PR.P.06.12.aif" "PR.P.06.13.aif" "PR.P.06.14.aif" "PR.P.06.15.aif" "PR.P.06.16.aif" "PR.P.06.17.aif" "PR.P.06.18.aif" "PR.P.06.19.aif" "PR.P.06.20.aif" "PR.P.06.21.aif" "PR.P.06.22.aif" "PR.P.06.23.aif" "PR.P.06.24.aif" "PR.P.06.25.aif" "PR.P.06.26.aif" "PR.P.06.27.aif" "PR.P.07.01.aif" "PR.P.07.02.aif" "PR.P.07.03.aif" "PR.P.07.04.aif" "PR.P.07.05.aif" "PR.P.07.06.aif" "PR.P.07.07.aif" "PR.P.07.08.aif" "PR.P.07.09.aif" "PR.P.07.10.aif" "PR.P.07.11.aif" "PR.P.07.12.aif" "PR.P.07.13.aif" "PR.P.07.14.aif" "PR.P.07.15.aif" "PR.P.07.16.aif" "PR.P.07.17.aif" "PR.P.07.18.aif" "PR.P.07.19.aif" "PR.P.07.20.aif" "PR.P.07.21.aif" "PR.P.07.22.aif" "PR.P.07.23.aif" "PR.P.07.24.aif" "PR.P.07.25.aif" "PR.P.07.26.aif" "PR.P.07.27.aif" "PR.P.08.01.aif" "PR.P.08.02.aif" "PR.P.08.03.aif" "PR.P.08.04.aif" "PR.P.08.05.aif" "PR.P.08.06.aif" "PR.P.08.07.aif" "PR.P.08.08.aif" "PR.P.08.09.aif" "PR.P.08.10.aif" "PR.P.08.11.aif" "PR.P.08.12.aif" "PR.P.08.13.aif" "PR.P.08.14.aif" "PR.P.08.15.aif" "PR.P.08.16.aif" "PR.P.08.17.aif" "PR.P.08.18.aif" "PR.P.08.19.aif" "PR.P.08.20.aif" "PR.P.08.21.aif" "PR.P.08.22.aif" "PR.P.08.23.aif" "PR.P.08.24.aif" "PR.P.08.25.aif" "PR.P.08.26.aif" "PR.P.08.27.aif" "PR.P.09.01.aif" "PR.P.09.02.aif" "PR.P.09.03.aif" "PR.P.09.04.aif" "PR.P.09.05.aif" "PR.P.09.06.aif" "PR.P.09.07.aif" "PR.P.09.08.aif" "PR.P.09.09.aif" "PR.P.09.10.aif" "PR.P.09.11.aif" "PR.P.09.12.aif" "PR.P.09.13.aif" "PR.P.09.14.aif" "PR.P.09.15.aif" "PR.P.09.16.aif" "PR.P.09.17.aif" "PR.P.09.18.aif" "PR.P.09.19.aif" "PR.P.09.20.aif" "PR.P.09.21.aif" "PR.P.09.22.aif" "PR.P.09.23.aif" "PR.P.09.24.aif" "PR.P.09.25.aif" "PR.P.09.26.aif") (list (quote soundset) (quote list) " " 0) (list (quote workingset) (quote list) " ") (list (quote active) (quote list) " ") (list (quote startsample) (quote list) " ") (list (quote samplesize) (quote list) " ") (list (quote starttime) (quote list) " ") (list (quote duration) (quote list) " ") (list (quote relstart) (quote list) " ") (list (quote shift) (quote list) " ") (list (quote pitch) (quote list) " ") (list (quote notenumber) (quote list) " ") (list (quote loudness) (quote list) " ") (list (quote periodicity) (quote list) " ") (list (quote spectralflatness) (quote list) " ") (list (quote spectralcentroid) (quote list) " ") (list (quote highfrequencyenergy) (quote list) " ") (list (quote midfrequencyenergy) (quote list) " ") (list (quote highfrequencycontent) (quote list) " ") (list "AC1" (quote list) " ") (list (quote energy) (quote list) " ") (list (quote label) (quote list) " " 0))) nil "read-lines-as-lists" 1))) (when (fboundp (quote set-active)) (set-active box nil)) box) (let ((box (om-load-boxcall (quote bastype) "aux" (quote t) (quote nil) (om-make-point 523 49) (om-make-point 67 30) ".ud.txt" "\".ud.txt\"" nil))) (when (fboundp (quote set-active)) (set-active box nil)) box) (let ((box (om-load-boxcall (quote lispfun) "STRING+" (quote string+) (quote ((om-load-inputfun (quote input-funbox) "add-input" "add-input" nil) (om-load-inputfun (quote input-funbox) "add-input" "add-input" ".sy.txt"))) (om-make-point 482 142) nil nil nil nil 1))) (when (fboundp (quote set-active)) (set-active box nil)) box) (let ((box (om-load-boxcall (quote bastype) "aux" (quote t) (quote nil) (om-make-point 379 55) (om-make-point 63 30) ".sf.txt" "\".sf.txt\"" nil))) (when (fboundp (quote set-active)) (set-active box nil)) box) (let ((box (om-load-boxcall (quote lispfun) "STRING+" (quote string+) (quote ((om-load-inputfun (quote input-funbox) "add-input" "add-input" nil) (om-load-inputfun (quote input-funbox) "add-input" "add-input" ".sy.txt"))) (om-make-point 328 127) nil nil nil nil 1))) (when (fboundp (quote set-active)) (set-active box nil)) box) (let ((box (om-load-boxcall (quote lispfun) "STRING+" (quote string+) (quote ((om-load-inputfun (quote input-funbox) "add-input" "add-input" nil) (om-load-inputfun (quote input-funbox) "add-input" "add-input" ".sy.txt"))) (om-make-point 157 130) nil nil nil nil 1))) (when (fboundp (quote set-active)) (set-active box nil)) box) (let ((box (om-load-boxcall (quote bastype) "aux" (quote t) (quote nil) (om-make-point 248 47) (om-make-point 66 30) ".sy.txt" "\".sy.txt\"" nil))) (when (fboundp (quote set-active)) (set-active box nil)) box) (let ((box (om-load-boxcall (quote lispfun) "OPEN-WS-FOLDER" (quote open-ws-folder) (quote nil) (om-make-point 612 35) nil nil nil nil 1))) (when (fboundp (quote set-active)) (set-active box nil)) box) (let ((box (om-load-boxin "file name minus extension" 0 (om-make-point 50 13) "" "file name minus extension" "ppiano" nil))) (when (fboundp (quote set-active)) (set-active box nil)) box))) (quote ((4 0 0 1 nil 0) (3 0 0 2 nil 0) (2 0 0 3 nil 0) (0 0 1 0 nil 0) (6 0 2 0 nil 0) (8 0 3 0 nil 0) (9 0 4 0 nil 0) (12 0 6 0 nil 2) (5 0 6 1 nil 2) (12 0 8 0 nil 1) (7 0 8 1 nil 1) (12 0 9 0 nil 0) (10 0 9 1 nil 0))) nil 6.1))
